<svg width="393" height="546" viewBox="0 0 393 546" fill="none" xmlns="http://www.w3.org/2000/svg">
<g clip-path="url(#clip0_2371_521)">
<rect x="31.9189" y="226" width="329.162" height="320" fill="url(#paint0_linear_2371_521)"/>
<path d="M23.9189 365.382C25.386 364.691 27.2778 364.385 29.2109 364.496C31.1443 364.609 32.9853 365.116 34.3848 365.869C35.7828 366.627 36.6193 367.574 36.7461 368.567C36.8882 369.728 37.0507 370.875 37.1455 372.301C37.1289 372.372 37.1372 372.593 37.1172 372.663C37.2074 372.985 37.2817 373.957 37.3643 374.735C37.597 377.089 37.785 379.553 37.7793 382.013C37.7761 383.727 37.735 385.452 37.6631 387.181C37.6557 387.356 37.6477 387.534 37.6396 387.712C38.1267 389.162 38.5753 390.603 38.7422 391.625C38.8797 392.461 38.6332 393.088 38.4229 393.613C38.2781 393.975 38.1509 394.31 38.1768 394.629C38.1907 394.801 38.2238 395.037 38.2637 395.323C38.4263 396.504 38.7051 398.481 38.2773 400.313C38.0874 401.128 37.7001 402.068 37.332 402.979C36.8054 404.268 36.3183 405.49 36.4922 406.081C36.7983 407.142 36.5933 408.352 36.4141 409.443C36.3275 409.958 36.2486 410.445 36.2334 410.867C36.2796 411.022 36.3445 411.157 36.4346 411.265C36.8905 411.809 36.7994 412.341 36.666 413.118C36.5749 413.666 36.463 414.322 36.5059 415.215C36.5534 416.229 36.3893 416.98 36.251 417.621C36.0555 418.515 35.9131 419.205 36.502 420.082C37.1583 421.07 37.6495 422.123 37.6396 423.017C37.6358 423.428 37.7294 423.877 37.8281 424.347C37.9588 424.968 38.0986 425.628 38.0283 426.258C37.9719 426.786 37.6748 427.264 37.4121 427.687C37.3299 427.816 37.2521 427.946 37.1855 428.069C37.2613 428.467 37.3415 428.872 37.4229 429.267C37.4942 429.323 37.5725 429.381 37.6533 429.441C38.0587 429.74 38.5557 430.108 38.8623 430.635C39.3463 431.465 39.2741 432.303 39.1836 433.217C39.1125 433.935 39.034 434.688 39.1807 435.624C39.2165 435.854 39.2672 436.115 39.3213 436.379C39.4091 436.721 39.5251 437.081 39.6416 437.439C39.9143 438.274 40.1855 439.101 40.0791 439.692C40.0391 439.913 39.815 440.116 39.5918 440.316C39.5905 440.317 39.5892 440.318 39.5879 440.319C39.5728 440.332 39.558 440.346 39.543 440.36C39.8087 441.77 40.0977 443.178 40.4014 444.586C40.4701 444.705 40.5384 444.826 40.6055 444.946C40.9333 445.529 41.2523 446.095 41.6748 446.448C42.1329 446.832 42.456 447.854 42.7988 448.929C43.0233 449.634 43.2566 450.362 43.54 450.948C43.7051 451.29 43.4884 451.647 43.2646 452.01C43.0558 452.349 42.8417 452.699 42.9287 453.057C42.9724 453.236 43.0883 453.424 43.2119 453.623C43.3208 453.8 43.4363 453.988 43.5137 454.187C43.5851 454.372 43.486 454.8 43.3613 455.357C43.2842 455.7 43.1969 456.085 43.1328 456.493C43.3685 457.529 43.6008 458.579 43.8232 459.615C44.0543 459.818 44.3461 459.986 44.7129 460.107C44.9761 460.193 45.2881 460.259 45.6064 460.326C46.0396 460.418 46.4878 460.513 46.8516 460.668C47.1356 460.789 47.2585 460.949 47.1553 461.072C47.1071 461.129 47.0105 461.178 46.9238 461.222C46.8248 461.273 46.7366 461.318 46.7432 461.364C46.7484 461.396 46.8245 461.424 46.916 461.458C47.0623 461.512 47.2512 461.587 47.2695 461.721C47.3366 462.219 47.3282 462.79 47.3193 463.35C47.3096 463.974 47.2998 464.576 47.3975 465.059C47.5058 465.59 47.3043 466.377 47.1055 467.176C46.9655 467.721 46.8282 468.284 46.7939 468.751C46.7741 469.024 46.8351 469.297 46.9268 469.565C47.0307 469.532 47.135 469.498 47.2393 469.465C47.2934 469.425 47.3451 469.387 47.3955 469.351C47.7769 469.083 48.1447 468.545 48.502 468.007C48.5852 467.884 48.6696 467.76 48.7549 467.64C49.379 466.725 50.6038 467.092 51.2881 467.293C51.3001 467.296 51.3122 467.301 51.3242 467.304C51.4808 467.352 51.6308 467.363 51.8086 467.376C52.2391 467.407 52.8108 467.448 54 468.024C54.3561 468 54.6869 467.988 55.041 467.986C58.0423 467.969 61.0353 468.437 64.0527 469.075C64.7885 469.235 65.5271 469.404 66.2676 469.577C66.3141 469.572 66.3623 469.566 66.4102 469.561C67.3357 469.456 68.4844 469.324 69.2139 469.645C70.1409 470.053 70.7755 470.434 71.2969 470.763C74.264 471.438 77.2475 472.019 80.2275 472.21C81.1615 472.27 82.0962 472.291 83.0293 472.265C83.8878 472.241 84.7476 472.188 85.6064 472.11C86.1018 471.897 86.5722 471.648 87.0088 471.417C87.3448 471.238 87.6656 471.07 87.957 470.939C87.9626 470.937 87.9809 470.939 87.9863 470.938C88.2309 470.832 88.4573 470.75 88.6631 470.705C89.7525 470.465 91.0302 470.774 91.9414 471.004C92.0887 471.042 92.2431 471.077 92.377 471.108C93.1285 470.966 93.8251 470.817 94.582 470.663C94.6332 470.738 94.685 470.816 94.7373 470.896C95.3782 471.893 96.1758 471.862 97.3672 471.817C97.9134 471.796 98.5135 471.774 99.2402 471.831C99.7152 471.868 99.9599 472.263 100.16 472.586C100.219 472.681 100.274 472.771 100.329 472.842C100.513 473.087 100.714 472.813 100.942 472.49C101.242 472.071 101.582 471.568 102.071 472.005C103.633 473.398 104.28 472.416 104.774 471.673C104.922 471.455 105.053 471.258 105.188 471.148C105.615 470.789 106.287 471.12 106.763 471.585C107.165 471.953 107.905 471.563 108.484 471.074C108.694 470.89 108.993 470.879 109.344 470.866C109.692 470.854 110.131 470.839 110.554 470.627C111.661 470.091 112.261 469.827 112.711 469.616C112.849 469.556 112.974 469.501 113.095 469.444C113.475 469.263 113.964 469.107 114.423 468.948C114.976 468.759 115.513 468.561 115.801 468.311C115.929 468.341 116.046 468.371 116.102 468.407C116.154 468.446 116.166 468.481 115.953 468.566C116.036 468.524 116.324 468.528 116.408 468.49C117.02 468.502 116.829 468.611 116.66 468.76C116.469 468.91 116.255 469.105 116.171 469.264C116.02 469.521 116.539 470.252 117.604 471.228C118.659 472.217 120.112 473.418 121.444 474.826C122.774 476.234 123.89 477.771 124.314 479.291C124.742 480.801 124.374 482.199 123.229 482.968C121.873 483.985 119.308 484.702 118.699 484.921L119.086 484.857C117.936 485.163 117.444 485.266 116.865 485.399C115.013 485.814 113.515 486.047 111.937 486.092C110.84 486.121 109.759 486.1 108.677 486.041C108.565 486.035 108.451 486.028 108.337 486.022C107.449 486.52 106.55 486.974 105.911 487.143C105.404 487.282 104.986 487.036 104.667 486.824C104.443 486.679 104.241 486.551 104.037 486.576C103.928 486.59 103.777 486.623 103.594 486.662C102.887 486.822 101.641 487.095 100.499 486.654C100.008 486.457 99.3806 486.062 98.8389 485.685C98.0348 485.146 97.2736 484.644 96.9092 484.812C96.2499 485.106 95.5013 484.886 94.8271 484.692C94.169 484.506 93.6325 484.344 93.3203 484.674C92.9551 485.069 92.6106 484.919 92.1348 484.697C91.8052 484.542 91.3976 484.355 90.835 484.288C90.1699 484.212 89.744 483.951 89.3477 483.73C88.9663 483.514 88.6461 483.335 88.2803 483.402L88.3008 483.401C88.1448 483.43 87.9804 483.508 87.7988 483.65C87.1391 484.166 86.4421 484.502 85.8828 484.361C85.6278 484.296 85.3376 484.321 85.0371 484.348C84.6379 484.383 84.2204 484.42 83.832 484.252C83.5128 484.114 83.2393 483.744 83 483.417C82.9252 483.315 82.8536 483.217 82.7842 483.132C82.5322 483.144 82.2808 483.158 82.0293 483.176C81.9902 483.238 81.9492 483.307 81.9062 483.377C81.6904 483.731 81.4275 484.164 81.0908 484.386C80.559 484.737 80.0776 484.539 79.5703 484.328C79.1759 484.165 78.7643 483.994 78.3008 484.071C77.984 484.123 77.6258 484.286 77.2705 484.448C76.7439 484.687 76.2226 484.922 75.8535 484.789C75.7152 484.739 75.5916 484.505 75.4697 484.273C75.4692 484.271 75.4683 484.27 75.4678 484.269C75.4596 484.253 75.4516 484.237 75.4434 484.222C74.5565 484.423 73.6687 484.641 72.7803 484.868C72.7042 484.931 72.627 484.992 72.5508 485.053C72.1779 485.349 71.815 485.636 71.582 486.038C71.3297 486.474 70.6795 486.738 69.9922 487.014C69.5424 487.195 69.0756 487.38 68.6963 487.625C68.4742 487.768 68.2579 487.528 68.0361 487.28C67.8288 487.048 67.6156 486.81 67.3877 486.872C67.2737 486.904 67.1505 487.006 67.0195 487.115C66.9042 487.212 66.7824 487.315 66.6543 487.378C66.5353 487.436 66.2663 487.306 65.9229 487.141C65.7108 487.039 65.4678 486.923 65.2148 486.828C64.8698 486.91 64.5215 486.991 64.1758 487.069C63.8555 487.14 63.5387 487.21 63.2256 487.277C63.0907 487.491 62.9743 487.769 62.8838 488.126C62.8192 488.382 62.7634 488.689 62.7051 489.001C62.6262 489.427 62.545 489.866 62.4316 490.217C62.343 490.491 62.2369 490.601 62.165 490.488C62.1317 490.435 62.1056 490.335 62.082 490.245C62.055 490.142 62.0306 490.05 62.002 490.053C61.9814 490.056 61.9602 490.129 61.9346 490.217C61.8933 490.359 61.8399 490.542 61.7568 490.549C61.453 490.575 61.0844 490.52 60.7383 490.464C60.3535 490.402 59.9767 490.342 59.6719 490.399C59.3318 490.462 58.8586 490.193 58.3672 489.925C58.0271 489.738 57.7027 489.551 57.4043 489.476C57.1178 489.402 56.8251 489.554 56.5459 489.702C56.1991 489.88 55.8689 490.052 55.5918 489.816C55.5353 489.768 55.4656 489.473 55.375 489.105C55.3098 488.844 55.2347 488.545 55.1504 488.27C54.7863 488.272 54.4476 488.261 54.0801 488.24C54.0676 488.281 54.0549 488.322 54.042 488.364V488.366C53.7487 489.306 53.3671 490.591 52.791 489.828C52.6471 489.634 52.5561 489.275 52.4746 488.952C52.3942 488.635 52.325 488.352 52.2168 488.292C52.0958 488.225 51.9557 488.42 51.8047 488.633C51.592 488.932 51.3614 489.266 51.1133 488.957C51.0967 488.936 51.079 488.913 51.0605 488.89C50.8822 488.67 50.6338 488.345 50.3701 487.691C49.6096 487.519 48.8412 487.316 48.0889 487.095C48.0354 487.08 47.9821 487.063 47.9287 487.047C47.8858 487.422 47.8471 487.801 47.8242 488.182C46.9242 489.968 46.1967 491.622 45.1172 492.806C44.0784 493.99 43.0176 494.616 42.127 494.603C41.0971 494.585 40.0909 494.603 39.2402 494.686C37.8331 494.534 36.2276 494.095 34.7285 493.299C34.4434 493.175 34.1653 493.041 33.8896 492.892C31.843 491.787 30.1419 490.498 28.792 489.256C28.4801 488.967 28.1891 488.687 27.9111 488.397C25.6545 486 25.4196 482.207 25.4814 480.752C25.4815 480.723 25.4813 480.693 25.4814 480.664C25.4885 480.293 25.4682 479.953 25.4492 479.576C25.4034 478.698 25.3756 477.45 25.8691 475.585C25.8214 475.063 25.7829 474.591 25.752 474.195C25.7421 474.068 25.7325 473.947 25.7236 473.84C25.2004 467.896 25.4185 461.896 25.8262 455.884C25.8154 455.807 25.805 455.729 25.7939 455.65C25.5792 454.121 25.3183 452.223 25.5615 450.999C25.8706 449.443 26.1896 448.381 26.4678 447.507C26.744 444.012 27.0028 440.52 27.1475 437.031C27.2389 436.177 27.1548 434.855 27.0137 433.542C26.858 432.105 26.6329 430.612 26.3662 429.103C26.1212 427.721 25.8499 426.325 25.5625 424.927C25.2322 424.149 24.8716 423.401 24.542 422.713C24.0767 421.734 23.6712 420.879 23.4707 420.135C22.9876 418.348 23.0406 416.252 23.0918 414.692C23.1003 414.439 23.108 414.197 23.1133 413.973C22.9931 413.454 22.8741 412.95 22.7529 412.424C22.7135 412.296 22.7307 411.89 22.7031 411.759C22.6086 411.071 22.513 410.39 22.417 409.717C22.4903 409.636 22.567 409.551 22.6455 409.466C23.626 408.407 23.5794 407.154 23.5127 405.177C23.4836 404.312 23.4515 403.313 23.499 402.138C23.5298 401.386 23.9222 400.975 24.2422 400.654C24.3362 400.558 24.4235 400.469 24.4941 400.379C24.7365 400.073 24.4623 399.758 24.1377 399.381C23.7166 398.89 23.2112 398.33 23.6436 397.527C25.0232 395.02 24.0443 393.931 23.3027 393.122C23.0854 392.883 22.8887 392.658 22.7783 392.434C22.4209 391.711 22.7542 390.649 23.2207 389.868C23.5902 389.229 23.2071 387.98 22.7275 387.043C22.5461 386.679 22.5388 386.187 22.5322 385.624C22.5253 385.015 22.5192 384.348 22.3174 383.602C21.8078 381.74 21.5665 380.756 21.374 379.948C21.3192 379.725 21.2695 379.507 21.2178 379.291C21.0543 378.624 20.9242 377.786 20.7969 376.926C20.6443 375.898 20.4964 374.846 20.2949 374.011C20.4264 373.099 20.5364 372.415 20.7744 371.009L20.7412 371.437C20.9523 370.55 21.1518 369.332 21.3633 368.132C21.5464 367.086 22.4533 366.07 23.9189 365.382ZM368.77 342.05C370.707 341.843 372.605 342.808 373.927 343.959C375.257 345.135 375.949 346.533 375.915 347.825C375.845 350.336 375.738 352.747 375.574 355.133C375.195 356 374.823 357.152 374.455 358.283C374.148 359.23 373.845 360.155 373.546 360.893C373.451 361.128 373.361 361.353 373.26 361.607C372.913 362.47 372.46 363.594 371.637 365.544C371.476 365.925 371.369 366.292 371.299 366.615C371.281 366.695 371.266 366.769 371.254 366.833C371.241 366.902 371.23 366.975 371.223 367.025C371.222 367.028 371.221 367.032 371.221 367.036C371.223 367.215 371.22 367.362 371.217 367.472C371.208 367.751 371.189 367.99 371.166 368.166C371.117 368.559 371.047 368.828 370.941 369.07C370.339 370.395 369.768 371.779 370.038 372.595C370.377 373.616 370.55 374.864 370.085 375.677C369.942 375.921 369.715 376.152 369.462 376.412C368.607 377.261 367.467 378.41 368.501 381.479C368.829 382.42 368.25 383.054 367.772 383.563C367.403 383.962 367.09 384.308 367.295 384.684C367.355 384.794 367.431 384.906 367.514 385.026C367.794 385.434 368.137 385.931 368.084 386.806C368.001 388.173 367.869 389.317 367.758 390.311C367.505 392.582 367.363 394.045 368.268 395.296C368.34 395.397 368.41 395.497 368.478 395.596C368.225 396.958 367.988 398.316 367.768 399.692C367.784 399.939 367.804 400.207 367.826 400.492C367.96 402.245 368.168 404.583 367.871 406.621C367.753 407.433 367.468 408.38 367.148 409.469C367.126 409.595 367.135 409.983 367.101 410.107C367.079 410.16 367.056 410.214 367.034 410.268C366.724 411.023 366.402 411.828 366.13 412.691C365.948 414.195 365.844 415.696 365.833 417.173C365.82 418.782 365.931 420.369 366.158 421.952C366.352 423.336 366.643 424.671 366.973 426.358C367.223 427.971 367.936 430.55 366.752 434.241C366.141 436.57 365.695 438.95 365.371 441.355C365.453 442.324 365.544 443.492 365.584 445.174C365.614 446.493 365.082 448.46 364.7 450.085C364.68 450.169 364.661 450.251 364.642 450.332C364.511 453.68 364.508 457.018 364.501 460.4C364.595 460.518 364.691 460.636 364.793 460.751C364.929 460.939 365.056 461.132 365.133 461.37C365.151 461.432 365.164 461.497 365.163 461.579C365.162 461.667 365.142 461.749 365.081 461.98C365.056 462.097 365.005 462.283 365.059 462.553C365.106 462.826 365.332 463.082 365.493 463.152C365.657 463.231 365.753 463.218 365.809 463.204C365.864 463.188 365.885 463.16 365.891 463.131C365.899 463.066 365.845 463.026 365.705 462.865C365.636 462.785 365.567 462.623 365.59 462.5C365.609 462.378 365.671 462.327 365.712 462.308C365.799 462.273 365.852 462.316 365.898 462.351C365.944 462.389 365.981 462.435 366.017 462.482C366.156 462.671 366.273 462.875 366.376 463.085C366.537 463.534 366.792 463.908 366.945 464.332C367.223 465.198 367.514 465.984 367.58 466.791C367.783 468.358 367.494 469.593 366.784 470.275C365.935 471.091 365.082 471.894 364.217 472.684C364.215 472.711 364.214 472.739 364.212 472.766C364.61 474.723 364.659 475.901 364.646 476.785C364.511 476.06 364.204 475.084 363.422 473.812C363.37 473.725 363.313 473.639 363.255 473.551C362.974 473.8 362.693 474.05 362.408 474.295C362.087 474.574 361.757 474.85 361.425 475.126C362.759 476.748 364.251 479.56 363.246 483.003C362.925 484.161 362.416 485.073 361.922 485.754C361.507 486.319 361.202 486.634 360.867 486.955C360.229 487.56 359.617 487.952 359.226 488.177C358.544 488.569 357.962 488.788 357.556 488.923C355.997 489.401 355.333 489.381 354.528 489.404C351.297 489.477 348.73 487.822 347.014 485.905C346.799 486.017 346.577 486.14 346.354 486.265C346.046 486.436 345.731 486.606 345.422 486.753C346.414 488.323 347.589 489.312 348.254 489.801C347.426 489.665 346.629 489.514 345.818 489.363C344.553 489.114 343.396 488.164 342.604 486.687C342.364 486.229 342.157 485.734 341.993 485.212C341.803 485.059 341.612 484.943 341.418 484.861C340.388 485.115 339.339 485.348 338.285 485.556C337.939 485.78 337.61 486.017 337.316 486.225C336.842 486.562 336.468 486.821 336.265 486.825C336.045 486.83 335.828 486.792 335.614 486.759C335.373 486.721 335.148 486.684 334.958 486.709C334.58 486.761 334.316 487.087 334.055 487.405C333.778 487.744 333.488 488.077 333.082 488.039C332.384 487.976 331.591 487.989 330.771 487.993C329.55 487.996 328.353 487.948 327.831 487.593C327.354 487.267 326.672 487.084 325.962 486.874C325.818 486.831 325.673 486.786 325.53 486.74C323.93 486.69 322.249 486.553 320.531 486.23C320.514 486.244 320.497 486.258 320.479 486.273C320.478 486.274 320.478 486.275 320.477 486.277C320.223 486.491 319.956 486.702 319.667 486.72C319.378 486.738 319.047 486.694 318.693 486.603C318.286 486.482 317.844 486.264 317.399 486.047C316.917 485.812 316.434 485.578 315.998 485.464C315.356 485.297 314.762 485.392 314.2 485.487C313.476 485.608 312.806 485.73 312.116 485.308C311.681 485.042 311.354 484.577 311.084 484.199C311.03 484.124 310.979 484.051 310.93 483.986C310.588 483.94 310.247 483.901 309.906 483.867C309.808 483.947 309.707 484.038 309.602 484.134C309.264 484.442 308.891 484.793 308.467 484.915C307.951 485.064 307.405 485.014 306.882 484.976C306.487 484.947 306.106 484.923 305.773 484.993C305.044 485.146 304.119 484.844 303.187 484.386C302.347 483.974 301.798 484.253 301.085 484.631C300.781 484.792 300.451 484.971 300.043 485.128C299.758 485.235 299.441 485.331 299.078 485.403C298.299 485.557 297.741 485.812 297.284 486.023C296.627 486.326 296.191 486.534 295.611 486.21C295.123 485.94 294.348 486.205 293.47 486.514C292.537 486.839 291.506 487.21 290.521 487.059C289.964 486.972 288.969 487.63 287.906 488.341C287.173 488.837 286.376 489.363 285.692 489.671C284.13 490.368 282.295 490.393 281.218 490.406C280.949 490.411 280.727 490.414 280.566 490.426C280.267 490.449 279.994 490.624 279.688 490.821C279.248 491.106 278.702 491.444 277.915 491.429C276.951 491.412 275.546 491.175 274.112 490.886C273.948 490.918 273.783 490.949 273.619 490.98C271.978 491.28 270.345 491.527 268.612 491.695C266.153 491.921 263.548 491.926 260.516 491.448C258.066 490.835 254.802 490.992 250.61 486.463C248.608 484.027 249.034 480.697 250.499 479.583C251.942 478.335 253.915 478.312 255.812 478.618C257.718 478.926 259.53 479.608 260.976 479.468C261.687 479.39 262.27 479.063 262.512 478.414C262.768 477.792 262.585 476.854 262.132 476.241C261.204 475.021 260.594 474.802 260.626 474.641C260.631 474.499 261.002 474.442 261.506 474.355C261.854 474.61 262.472 474.802 263.183 474.956C263.746 475.087 264.39 475.196 264.903 475.332C265.069 475.375 265.239 475.416 265.426 475.459C266.053 475.61 266.857 475.796 268.479 476.13C269.103 476.264 269.709 476.196 270.209 476.138C270.692 476.082 271.115 476.032 271.453 476.168C272.324 476.534 273.496 476.748 273.977 476.3C274.598 475.733 275.476 475.256 276.168 475.508C276.383 475.586 276.608 475.749 276.856 475.929C277.699 476.545 278.816 477.358 280.832 475.617C281.473 475.071 282.064 475.484 282.569 475.826C282.956 476.091 283.291 476.314 283.526 476.029C283.595 475.945 283.661 475.845 283.731 475.738C283.97 475.372 284.263 474.925 284.946 474.78C286.002 474.555 286.909 474.439 287.698 474.34C289.499 474.115 290.652 473.982 291.472 472.862C291.538 472.772 291.603 472.684 291.668 472.6C292.784 472.6 293.919 472.603 295.037 472.607C295.233 472.552 295.445 472.489 295.67 472.424C296.579 472.161 297.687 471.846 298.837 471.684C299.466 471.596 300.095 471.555 300.714 471.586C301.458 471.625 302.375 471.846 303.399 472.12C304.127 472.316 304.913 472.538 305.729 472.74C307.134 472.799 308.542 472.882 309.935 472.981C311.446 473.088 312.94 473.201 314.408 473.306C316.615 473.464 318.767 473.602 320.892 473.696C322.07 473.602 323.728 473.174 325.428 472.506C325.963 472.076 326.597 471.564 327.59 470.893C328.35 470.373 329.763 470.104 330.938 469.824C330.999 469.81 331.058 469.796 331.117 469.782C334.909 467.711 338.726 465.321 342.741 463.2C342.552 462.278 342.387 461.376 342.495 460.733C342.597 460.133 342.601 459.336 342.608 458.547C342.616 457.826 342.63 457.091 342.721 456.448C342.745 456.276 342.938 456.18 343.088 456.107C343.182 456.061 343.26 456.024 343.267 455.981C343.276 455.921 343.189 455.863 343.093 455.798C343.008 455.741 342.914 455.678 342.869 455.605C342.772 455.447 342.905 455.24 343.197 455.086C343.571 454.889 344.026 454.767 344.467 454.651C344.79 454.566 345.108 454.482 345.377 454.375C345.752 454.227 346.057 454.02 346.303 453.769C346.604 452.445 346.933 451.138 347.289 449.828C347.272 449.305 347.233 448.811 347.201 448.368C347.15 447.653 347.115 447.093 347.214 446.864C347.321 446.616 347.465 446.386 347.602 446.169C347.757 445.923 347.903 445.691 347.977 445.469C348.123 445.024 347.971 444.558 347.826 444.099C347.671 443.606 347.522 443.13 347.757 442.706C348.159 441.98 348.546 441.083 348.938 440.21C349.53 438.887 350.131 437.638 350.69 437.238C351.207 436.865 351.684 436.218 352.186 435.557C352.288 435.422 352.392 435.285 352.497 435.151C353.236 433.466 354.019 431.792 354.838 430.147C354.829 430.126 354.821 430.105 354.812 430.084C354.811 430.083 354.81 430.081 354.809 430.079C354.726 429.888 354.643 429.694 354.605 429.506C354.586 429.504 354.568 429.502 354.552 429.501C354.614 429.41 354.687 429.262 354.748 429.062C354.88 428.642 354.966 428.024 354.94 427.457C354.902 426.619 354.614 425.835 354.349 425.062C354.007 424.071 353.695 423.077 353.947 421.904C354.107 421.161 354.503 420.554 354.83 420.072C354.895 419.976 354.959 419.884 355.017 419.797C355.008 419.26 355.003 418.751 355.002 418.219C354.913 418.083 354.813 417.94 354.709 417.789C354.375 417.297 354.002 416.76 353.87 416.08C353.71 415.275 353.772 414.385 353.846 413.553C353.901 412.928 353.963 412.322 353.936 411.792C353.886 410.82 354.192 409.698 354.682 408.58L354.642 409.103C354.723 408.868 354.813 408.634 354.907 408.404C355.393 407.226 355.181 406.416 354.904 405.34C354.708 404.579 354.481 403.666 354.459 402.406C354.441 401.306 354.295 400.5 354.177 399.83C354.006 398.876 353.895 398.224 354.334 397.51C354.701 396.92 354.611 395.805 354.517 394.546C354.419 393.216 354.319 391.72 354.725 390.452C354.955 389.735 354.586 388.239 354.207 386.611C353.94 385.487 353.668 384.298 353.582 383.281C353.385 381.008 353.946 378.625 354.281 377.227C354.362 376.893 354.432 376.601 354.472 376.392C354.547 375.999 354.466 375.614 354.38 375.145C354.252 374.485 354.102 373.714 354.369 372.728C354.69 371.543 355.368 369.884 356.021 368.411C356.032 368.242 356.045 368.039 356.052 367.885C356.055 367.817 356.057 367.751 356.06 367.69C356.052 367.585 356.052 367.437 356.04 367.378C355.999 366.024 356.066 365.957 356.087 365.544C356.109 365.276 356.143 364.969 356.165 364.768C356.219 364.292 356.272 363.89 356.327 363.49C356.44 362.677 356.554 361.942 356.681 361.183C357.184 358.185 357.907 355.314 358.697 352.471C359.345 350.144 360.05 347.823 360.69 345.584C361.009 344.474 362.006 343.558 363.494 343C364.986 342.449 366.839 342.22 368.77 342.05ZM348.254 489.801C349.563 490.016 350.952 490.192 352.604 490.263C352.753 490.29 352.897 490.317 353.058 490.337C353.584 490.407 354.157 490.518 354.878 490.6C355.074 490.815 355.252 491.101 354.978 491.417C354.909 491.483 354.832 491.55 354.666 491.614C354.586 491.645 354.502 491.677 354.385 491.704C354.25 491.732 354.09 491.755 353.897 491.77C353.757 491.786 353.458 491.784 353.118 491.754C353.031 491.747 352.939 491.737 352.841 491.725C352.738 491.712 352.653 491.701 352.476 491.668C352.155 491.608 351.778 491.524 351.306 491.374C350.954 491.259 349.986 490.951 348.741 490.14C348.667 490.09 348.493 489.977 348.254 489.801ZM364.646 476.785C364.719 477.172 364.743 477.486 364.764 477.737C364.793 478.474 364.699 478.747 364.636 478.926C364.632 478.786 364.628 478.652 364.623 478.527C364.622 478.496 364.622 478.466 364.621 478.436C364.607 478.036 364.62 477.695 364.634 477.294C364.639 477.134 364.644 476.966 364.646 476.785ZM354.552 429.501C354.516 429.552 354.484 429.586 354.458 429.6C354.386 429.642 354.379 429.551 354.468 429.511C354.485 429.503 354.514 429.5 354.552 429.501ZM356.057 367.241C356.054 367.264 356.042 367.352 356.062 367.643C356.066 367.513 356.07 367.4 356.068 367.312C356.067 367.253 356.062 367.21 356.057 367.241ZM368.77 127.979C370.707 127.772 372.605 128.737 373.927 129.888C375.257 131.063 375.949 132.461 375.915 133.754C375.845 136.264 375.738 138.675 375.574 141.061C375.195 141.928 374.823 143.08 374.455 144.212C374.148 145.158 373.845 146.084 373.546 146.822C373.451 147.057 373.361 147.281 373.26 147.535C372.913 148.398 372.46 149.523 371.637 151.473C371.476 151.854 371.369 152.221 371.299 152.543C371.281 152.624 371.266 152.697 371.254 152.761C371.241 152.829 371.23 152.903 371.223 152.952C371.222 152.956 371.221 152.961 371.221 152.965C371.223 153.144 371.22 153.29 371.217 153.401C371.208 153.68 371.189 153.918 371.166 154.095C371.117 154.488 371.047 154.756 370.941 154.998C370.339 156.323 369.768 157.707 370.038 158.524C370.377 159.545 370.551 160.793 370.085 161.606C369.942 161.85 369.715 162.081 369.462 162.341C368.607 163.19 367.467 164.338 368.501 167.406C368.829 168.348 368.251 168.982 367.772 169.491C367.403 169.891 367.09 170.236 367.295 170.612C367.355 170.722 367.431 170.834 367.514 170.953C367.794 171.361 368.137 171.86 368.084 172.735C368.001 174.101 367.869 175.244 367.758 176.239C367.505 178.51 367.363 179.973 368.268 181.225C368.34 181.326 368.41 181.426 368.478 181.525C368.225 182.886 367.988 184.245 367.768 185.62C367.784 185.867 367.804 186.135 367.826 186.42C367.96 188.173 368.168 190.512 367.871 192.55C367.753 193.361 367.468 194.308 367.148 195.398C367.126 195.524 367.135 195.912 367.101 196.035C367.079 196.089 367.056 196.143 367.034 196.197C366.724 196.951 366.402 197.757 366.13 198.619C365.948 200.123 365.844 201.624 365.833 203.101C365.82 204.71 365.931 206.298 366.158 207.881C366.352 209.265 366.643 210.599 366.973 212.286C367.223 213.9 367.936 216.478 366.752 220.17C366.141 222.498 365.695 224.879 365.371 227.283C365.453 228.253 365.544 229.42 365.584 231.103C365.603 231.937 365.397 233.03 365.146 234.131C365.9 233.991 366.871 234.188 367.97 234.711C368.697 235.02 369.363 235.521 370.103 236.031C370.458 236.3 370.77 236.628 371.132 236.922C371.296 237.085 371.452 237.256 371.566 237.479C371.594 237.536 371.618 237.597 371.63 237.679C371.643 237.766 371.636 237.85 371.613 238.088C371.607 238.208 371.587 238.399 371.684 238.657C371.774 238.919 372.039 239.136 372.209 239.178C372.384 239.23 372.477 239.202 372.529 239.179C372.581 239.154 372.598 239.122 372.599 239.093C372.596 239.027 372.536 238.997 372.372 238.861C372.291 238.793 372.196 238.644 372.199 238.52C372.199 238.396 372.251 238.336 372.289 238.31C372.37 238.262 372.428 238.295 372.479 238.323C372.531 238.353 372.575 238.392 372.618 238.432C372.787 238.596 372.934 238.779 373.069 238.969C373.3 239.386 373.613 239.714 373.833 240.108C374.246 240.918 374.66 241.646 374.855 242.432C375.308 243.945 375.222 245.211 374.631 245.998C373.438 247.591 372.234 249.154 370.959 250.674C370.216 251.568 369.429 252.462 368.607 253.331C368.702 254.091 368.595 254.588 368.517 254.928C368.508 254.964 368.501 254.998 368.494 255.031C368.392 255.502 367.883 255.476 367.445 255.438C367.132 255.411 366.843 255.387 366.739 255.551C366.648 255.696 366.732 255.99 366.825 256.318C366.92 256.652 367.024 257.023 366.961 257.315C366.716 258.459 365.451 257.801 364.526 257.32L364.524 257.318C364.484 257.296 364.443 257.276 364.403 257.255C364.369 257.283 364.333 257.309 364.299 257.336C364.274 257.787 364.246 258.243 364.212 258.694C364.61 260.651 364.659 261.829 364.646 262.714C364.512 261.996 364.209 261.032 363.444 259.779C363.451 259.842 363.451 259.889 363.438 259.917C363.217 260.369 362.701 260.529 362.157 260.698C361.888 260.781 361.614 260.866 361.367 260.988C362.715 262.598 364.265 265.439 363.246 268.931C362.925 270.089 362.416 271.001 361.922 271.683C361.507 272.248 361.202 272.563 360.867 272.884C360.229 273.489 359.617 273.88 359.226 274.106C358.544 274.498 357.962 274.717 357.556 274.852C355.997 275.33 355.333 275.309 354.528 275.331C349.405 275.448 345.95 271.218 344.914 268.489C344.739 268.752 344.533 268.964 344.231 268.986C344.136 268.993 344.039 269.004 343.94 269.014C344.737 272.813 347.172 274.934 348.254 275.73C347.426 275.594 346.629 275.443 345.818 275.291C344.553 275.043 343.396 274.092 342.604 272.615C342.103 271.662 341.751 270.545 341.623 269.365C340.532 269.536 339.499 269.638 338.978 269.396C338.454 269.151 337.752 269.081 337.017 268.989C336.868 268.969 336.718 268.948 336.569 268.925C334.983 269.135 333.301 269.272 331.554 269.231C331.539 269.248 331.524 269.264 331.51 269.281C331.509 269.283 331.509 269.285 331.508 269.286C331.292 269.539 331.062 269.791 330.78 269.856C330.499 269.921 330.165 269.931 329.801 269.898C329.38 269.844 328.908 269.701 328.435 269.559C327.92 269.405 327.405 269.252 326.956 269.21C326.295 269.149 325.725 269.338 325.187 269.523C324.492 269.76 323.85 269.988 323.101 269.684C322.628 269.491 322.231 269.086 321.903 268.757C321.838 268.692 321.776 268.628 321.717 268.571C321.372 268.581 321.029 268.597 320.688 268.619C320.604 268.714 320.519 268.821 320.431 268.933C320.147 269.291 319.835 269.697 319.436 269.887C318.951 270.117 318.404 270.157 317.882 270.203C317.488 270.238 317.108 270.278 316.791 270.401C316.096 270.67 315.134 270.521 314.14 270.22C313.245 269.95 312.748 270.314 312.105 270.802C311.832 271.01 311.534 271.24 311.157 271.46C310.894 271.612 310.595 271.758 310.249 271.888C309.505 272.166 308.996 272.508 308.579 272.79C307.979 273.196 307.582 273.471 306.958 273.245C306.433 273.058 305.71 273.446 304.894 273.893C304.025 274.365 303.067 274.898 302.07 274.907C301.507 274.912 300.632 275.722 299.697 276.596C299.054 277.204 298.352 277.852 297.727 278.267C296.297 279.208 294.49 279.529 293.429 279.717C293.164 279.765 292.946 279.804 292.789 279.842C292.497 279.913 292.257 280.13 291.986 280.373C291.599 280.726 291.113 281.148 290.334 281.261C289.38 281.4 287.956 281.394 286.494 281.341C286.337 281.399 286.179 281.456 286.022 281.513C284.451 282.075 282.88 282.582 281.196 283.029C278.805 283.65 276.237 284.077 273.167 284.097C270.65 283.888 267.455 284.571 262.589 280.78C260.22 278.699 260.104 275.346 261.371 274.009C262.594 272.544 264.537 272.201 266.458 272.197C268.388 272.192 270.286 272.57 271.69 272.198C272.38 272.007 272.902 271.589 273.036 270.91C273.189 270.255 272.859 269.358 272.312 268.827C271.2 267.773 270.562 267.655 270.568 267.491C270.551 267.351 270.908 267.235 271.391 267.068C271.775 267.263 272.415 267.352 273.142 267.389C273.718 267.427 274.373 267.431 274.901 267.483C275.072 267.498 275.246 267.51 275.437 267.522C276.08 267.57 276.904 267.624 278.559 267.691C279.195 267.722 279.783 267.556 280.267 267.418C280.735 267.285 281.143 267.167 281.499 267.247C282.417 267.467 283.609 267.488 284.011 266.968C284.533 266.307 285.322 265.695 286.046 265.831C286.271 265.873 286.518 265.998 286.793 266.136C287.723 266.608 288.957 267.229 290.666 265.185C291.21 264.541 291.861 264.854 292.415 265.111C292.84 265.309 293.205 265.475 293.392 265.155C293.446 265.061 293.496 264.952 293.548 264.834C293.725 264.435 293.941 263.946 294.592 263.693C295.598 263.3 296.473 263.038 297.236 262.813C298.978 262.299 300.094 261.981 300.723 260.742C300.773 260.643 300.824 260.546 300.874 260.452C301.976 260.272 303.096 260.091 304.2 259.913C304.384 259.827 304.583 259.732 304.795 259.631C305.65 259.225 306.693 258.735 307.802 258.389C308.408 258.201 309.022 258.058 309.638 257.989C310.379 257.906 311.319 257.976 312.374 258.08C313.123 258.155 313.935 258.248 314.773 258.315C316.169 258.146 317.572 257.999 318.962 257.871C320.471 257.732 321.964 257.602 323.43 257.468C325.633 257.267 327.779 257.055 329.891 256.803C331.038 256.519 332.607 255.83 334.177 254.896C334.636 254.385 335.178 253.776 336.05 252.953C336.716 252.318 338.067 251.823 339.182 251.357C339.239 251.333 339.296 251.31 339.352 251.286C340.449 250.431 341.542 249.54 342.643 248.637C342.501 247.892 342.407 247.189 342.495 246.66C342.597 246.061 342.601 245.265 342.608 244.476C342.616 243.755 342.63 243.019 342.721 242.376C342.745 242.203 342.938 242.107 343.088 242.034C343.182 241.989 343.26 241.952 343.267 241.909C343.276 241.85 343.189 241.792 343.093 241.727C343.008 241.67 342.914 241.607 342.869 241.533C342.772 241.375 342.905 241.169 343.197 241.015C343.571 240.818 344.026 240.696 344.467 240.579C344.79 240.494 345.107 240.41 345.377 240.304C345.753 240.156 346.057 239.949 346.303 239.698C346.604 238.374 346.932 237.067 347.289 235.757C347.272 235.233 347.233 234.74 347.201 234.297C347.15 233.582 347.115 233.022 347.214 232.792C347.321 232.545 347.465 232.315 347.602 232.098C347.757 231.851 347.903 231.62 347.977 231.398C348.123 230.952 347.971 230.486 347.826 230.027C347.671 229.534 347.522 229.059 347.757 228.635C348.159 227.909 348.546 227.011 348.938 226.138C349.53 224.815 350.131 223.567 350.69 223.166C351.207 222.793 351.684 222.147 352.186 221.486C352.288 221.35 352.392 221.213 352.497 221.079C353.236 219.395 354.019 217.721 354.838 216.075C354.829 216.055 354.821 216.034 354.812 216.013C354.811 216.011 354.81 216.01 354.809 216.008C354.726 215.816 354.643 215.623 354.605 215.435C354.586 215.432 354.568 215.431 354.552 215.43C354.615 215.339 354.687 215.191 354.748 214.99C354.88 214.571 354.966 213.953 354.94 213.386C354.902 212.548 354.614 211.763 354.349 210.99C354.007 210 353.695 209.005 353.947 207.832C354.107 207.089 354.503 206.483 354.83 206C354.895 205.905 354.959 205.813 355.017 205.726C355.008 205.189 355.003 204.679 355.002 204.147C354.913 204.011 354.813 203.868 354.709 203.718C354.375 203.226 354.002 202.689 353.87 202.009C353.71 201.204 353.772 200.312 353.846 199.481C353.901 198.855 353.963 198.25 353.936 197.721C353.886 196.749 354.192 195.626 354.682 194.509L354.642 195.031C354.723 194.797 354.813 194.563 354.907 194.332C355.393 193.155 355.181 192.345 354.904 191.269C354.708 190.508 354.481 189.595 354.459 188.334C354.441 187.234 354.295 186.429 354.177 185.759C354.006 184.804 353.895 184.153 354.334 183.439C354.701 182.849 354.611 181.733 354.517 180.474C354.419 179.144 354.319 177.648 354.725 176.381C354.955 175.664 354.586 174.167 354.207 172.539C353.94 171.416 353.668 170.226 353.582 169.209C353.385 166.936 353.946 164.552 354.281 163.155C354.362 162.821 354.432 162.53 354.472 162.321C354.547 161.927 354.466 161.543 354.38 161.073C354.252 160.413 354.102 159.642 354.369 158.656C354.69 157.471 355.368 155.812 356.021 154.34C356.032 154.171 356.045 153.967 356.052 153.814C356.055 153.746 356.057 153.68 356.06 153.618C356.052 153.514 356.052 153.364 356.04 153.306C355.999 151.952 356.066 151.885 356.087 151.473C356.109 151.204 356.143 150.897 356.165 150.696C356.219 150.22 356.272 149.818 356.327 149.417C356.44 148.605 356.554 147.87 356.681 147.112C357.184 144.114 357.907 141.242 358.697 138.399C359.345 136.072 360.05 133.751 360.69 131.512C361.01 130.402 362.006 129.486 363.494 128.929C364.986 128.377 366.839 128.149 368.77 127.979ZM23.9189 145.757C25.386 145.066 27.2778 144.76 29.2109 144.871C31.1443 144.984 32.9853 145.491 34.3848 146.244C35.7828 147.002 36.6193 147.949 36.7461 148.942C36.8882 150.103 37.0507 151.25 37.1455 152.676C37.1289 152.747 37.1372 152.968 37.1172 153.038C37.2074 153.36 37.2817 154.332 37.3643 155.11C37.597 157.464 37.785 159.928 37.7793 162.388C37.7761 164.102 37.735 165.827 37.6631 167.556C37.6557 167.731 37.6477 167.909 37.6396 168.087C38.1267 169.537 38.5753 170.978 38.7422 172C38.8797 172.836 38.6332 173.463 38.4229 173.988C38.2781 174.35 38.1509 174.685 38.1768 175.004C38.1907 175.176 38.2238 175.412 38.2637 175.698C38.4263 176.879 38.7051 178.856 38.2773 180.688C38.0874 181.503 37.7001 182.443 37.332 183.354C36.8054 184.643 36.3183 185.865 36.4922 186.456C36.7983 187.517 36.5933 188.727 36.4141 189.818C36.3275 190.333 36.2486 190.82 36.2334 191.242C36.2796 191.397 36.3445 191.532 36.4346 191.64C36.8906 192.184 36.7994 192.716 36.666 193.493C36.5749 194.041 36.463 194.697 36.5059 195.59C36.5534 196.604 36.3893 197.355 36.251 197.996C36.0555 198.89 35.9131 199.58 36.502 200.457C37.1583 201.445 37.6495 202.498 37.6396 203.392C37.6358 203.803 37.7293 204.253 37.8281 204.723C37.9588 205.344 38.0986 206.004 38.0283 206.633C37.972 207.161 37.6748 207.639 37.4121 208.062C37.3299 208.191 37.2521 208.321 37.1855 208.444C37.2613 208.842 37.3415 209.247 37.4229 209.642C37.4942 209.698 37.5725 209.756 37.6533 209.816C38.0587 210.115 38.5557 210.483 38.8623 211.01C39.3463 211.84 39.2741 212.678 39.1836 213.592C39.1125 214.31 39.034 215.063 39.1807 215.999C39.2165 216.229 39.2672 216.49 39.3213 216.754C39.4091 217.096 39.5251 217.456 39.6416 217.814C39.9143 218.649 40.1855 219.476 40.0791 220.067C40.0391 220.288 39.815 220.491 39.5918 220.691C39.5905 220.692 39.5892 220.693 39.5879 220.694C39.5728 220.707 39.558 220.721 39.543 220.735C39.8087 222.145 40.0977 223.553 40.4014 224.961C40.4701 225.08 40.5384 225.201 40.6055 225.321C40.9333 225.904 41.2523 226.47 41.6748 226.823C42.1329 227.207 42.456 228.229 42.7988 229.304C43.0233 230.009 43.2566 230.737 43.54 231.323C43.7051 231.665 43.4884 232.022 43.2646 232.385C43.0558 232.724 42.8417 233.074 42.9287 233.432C42.9724 233.611 43.0883 233.799 43.2119 233.998C43.3208 234.175 43.4363 234.363 43.5137 234.562C43.5851 234.747 43.486 235.175 43.3613 235.732C43.2842 236.075 43.1969 236.46 43.1328 236.868C43.3685 237.903 43.6008 238.954 43.8232 239.99C44.0543 240.193 44.3461 240.361 44.7129 240.482C44.9761 240.568 45.2881 240.634 45.6064 240.701C46.0396 240.793 46.4878 240.888 46.8516 241.043C47.1356 241.164 47.2585 241.324 47.1553 241.447C47.1071 241.504 47.0105 241.553 46.9238 241.597C46.8248 241.648 46.7366 241.693 46.7432 241.739C46.7483 241.771 46.8244 241.799 46.916 241.833C47.0623 241.887 47.2511 241.962 47.2695 242.096C47.3366 242.594 47.3282 243.165 47.3193 243.725C47.3096 244.349 47.2998 244.951 47.3975 245.434C47.5058 245.965 47.3043 246.752 47.1055 247.552C46.9655 248.097 46.8281 248.659 46.7939 249.126C46.7606 249.585 46.9546 250.045 47.1426 250.481C47.2208 250.665 47.2968 250.846 47.3564 251.024C47.3835 250.996 47.4115 250.969 47.4385 250.942C47.5526 250.827 47.6679 250.712 47.7842 250.601C48.6386 249.752 50.0831 250.283 50.8906 250.575C50.9048 250.58 50.9194 250.585 50.9336 250.59C51.1183 250.659 51.2986 250.69 51.5127 250.726C52.0311 250.812 52.7191 250.929 54.0986 251.666C54.5326 251.688 54.9349 251.717 55.3643 251.761C59.0022 252.131 62.5778 252.99 66.165 254.027C67.0394 254.283 67.9163 254.549 68.7949 254.821C68.8518 254.821 68.9102 254.822 68.9688 254.823C70.1013 254.835 71.5069 254.849 72.3564 255.269C73.4363 255.803 74.1652 256.271 74.7617 256.672C78.2844 257.739 81.8366 258.713 85.4268 259.29C86.552 259.471 87.6812 259.613 88.8145 259.707C89.8573 259.794 90.905 259.85 91.9541 259.881C92.5771 259.729 93.1738 259.536 93.7275 259.358C94.1538 259.219 94.5606 259.09 94.9277 258.994C94.9347 258.993 94.9561 258.998 94.9629 258.997C95.2707 258.921 95.5535 258.867 95.8076 258.848C97.1533 258.744 98.6687 259.222 99.748 259.573C99.9225 259.631 100.106 259.686 100.265 259.735C101.191 259.687 102.051 259.625 102.984 259.567C103.038 259.649 103.093 259.735 103.147 259.823C103.817 260.917 104.787 260.989 106.235 261.096C106.899 261.146 107.629 261.2 108.503 261.352C109.074 261.45 109.328 261.883 109.536 262.237C109.597 262.34 109.654 262.438 109.713 262.518C109.909 262.79 110.183 262.539 110.494 262.24C110.902 261.853 111.369 261.386 111.914 261.893C113.656 263.508 114.545 262.594 115.225 261.904C115.426 261.701 115.607 261.518 115.783 261.423C116.339 261.114 117.116 261.537 117.643 262.07C118.09 262.495 119.03 262.195 119.784 261.774C120.058 261.613 120.421 261.64 120.848 261.672C121.271 261.704 121.804 261.746 122.339 261.585C123.739 261.183 124.494 260.992 125.062 260.836C125.236 260.793 125.393 260.753 125.546 260.71C126.027 260.576 126.635 260.481 127.208 260.379C127.898 260.258 128.57 260.125 128.945 259.908C129.098 259.956 129.237 260.002 129.3 260.046C129.358 260.091 129.369 260.129 129.103 260.188C129.207 260.156 129.556 260.197 129.662 260.169C130.402 260.26 130.158 260.346 129.938 260.475C129.69 260.602 129.41 260.774 129.291 260.924C129.081 261.165 129.632 261.975 130.816 263.103C131.989 264.243 133.621 265.648 135.085 267.249C136.546 268.849 137.732 270.554 138.083 272.152C138.439 273.739 137.843 275.112 136.372 275.745C134.62 276.604 131.436 277 130.675 277.145L131.15 277.13C129.724 277.293 129.117 277.333 128.401 277.394C126.112 277.577 124.273 277.622 122.355 277.464C121.024 277.352 119.716 277.191 118.411 276.992C118.276 276.972 118.14 276.951 118.002 276.929C116.873 277.32 115.735 277.666 114.942 277.755C114.313 277.831 113.833 277.527 113.47 277.272C113.213 277.095 112.982 276.939 112.732 276.939C112.599 276.939 112.413 276.953 112.188 276.969C111.314 277.04 109.775 277.157 108.438 276.562C107.864 276.299 107.146 275.818 106.53 275.365C105.614 274.715 104.746 274.107 104.286 274.231C103.456 274.445 102.572 274.124 101.776 273.84C100.999 273.567 100.366 273.334 99.9521 273.629C99.4675 273.983 99.0661 273.787 98.5137 273.5C98.1309 273.301 97.6572 273.057 96.9824 272.917C96.1849 272.754 95.6978 272.435 95.2412 272.159C94.8021 271.891 94.433 271.668 93.9824 271.689L94.0068 271.691C93.8149 271.701 93.6079 271.758 93.373 271.878C92.5181 272.318 91.6371 272.569 90.9746 272.354C90.6725 272.255 90.3191 272.244 89.9521 272.233C89.4644 272.217 88.9538 272.2 88.501 271.98C88.1292 271.798 87.8378 271.388 87.583 271.026C87.5033 270.912 87.4265 270.804 87.3516 270.708C87.0452 270.688 86.7391 270.67 86.4326 270.656C86.3788 270.713 86.322 270.777 86.2627 270.843C85.9632 271.174 85.5978 271.581 85.166 271.763C84.4841 272.051 83.9221 271.788 83.3301 271.509C82.8698 271.292 82.3893 271.066 81.8193 271.084C81.4299 271.097 80.9791 271.216 80.5312 271.334C79.8672 271.51 79.2094 271.681 78.7764 271.498C78.6143 271.429 78.4898 271.177 78.3672 270.925C78.3667 270.924 78.3667 270.922 78.3662 270.92C78.3579 270.903 78.3491 270.886 78.3408 270.869C77.2448 270.959 76.1458 271.066 75.0449 271.183C74.9462 271.236 74.8468 271.289 74.748 271.341C74.2645 271.594 73.7942 271.839 73.4688 272.217C73.1163 272.627 72.2991 272.81 71.4365 273.002C70.8721 273.128 70.2867 273.257 69.8008 273.457C69.5165 273.574 69.2801 273.302 69.0381 273.022C68.8117 272.76 68.5797 272.491 68.2969 272.525C68.1554 272.542 67.9956 272.63 67.8252 272.724C67.6752 272.807 67.5164 272.896 67.3545 272.944C67.2042 272.988 66.8909 272.821 66.4922 272.609C66.2463 272.478 65.9651 272.329 65.6689 272.2C65.2422 272.239 64.8119 272.276 64.3848 272.31C63.9888 272.341 63.5968 272.371 63.21 272.399C63.0235 272.599 62.853 272.867 62.7051 273.218C62.5995 273.469 62.4996 273.773 62.3955 274.082C62.2543 274.504 62.1077 274.941 61.9326 275.282C61.796 275.549 61.6569 275.646 61.582 275.523C61.5472 275.465 61.5258 275.36 61.5068 275.266C61.4851 275.158 61.4657 275.061 61.4307 275.06C61.4054 275.06 61.3718 275.132 61.3311 275.219C61.2659 275.358 61.1813 275.536 61.0801 275.532C60.7092 275.52 60.2688 275.416 59.8555 275.315C59.3957 275.202 58.9448 275.093 58.5693 275.112C58.1506 275.132 57.6075 274.798 57.041 274.462C56.649 274.228 56.2753 273.997 55.9219 273.882C55.5828 273.77 55.2115 273.888 54.8574 274.002C54.4179 274.138 53.9989 274.271 53.6885 273.994C53.6252 273.938 53.5723 273.63 53.502 273.244C53.4509 272.971 53.393 272.658 53.3203 272.368C52.8791 272.324 52.4703 272.269 52.0273 272.201C52.008 272.24 51.9878 272.28 51.9678 272.321L51.9668 272.323C51.5107 273.24 50.911 274.495 50.2949 273.648C50.1414 273.432 50.069 273.056 50.0049 272.717C49.9416 272.385 49.8884 272.088 49.7637 272.014C49.6242 271.93 49.4334 272.11 49.2275 272.307C48.9378 272.583 48.623 272.892 48.3555 272.547C48.3376 272.524 48.3179 272.498 48.2979 272.472C48.1053 272.226 47.8391 271.864 47.5898 271.165C47.2785 271.071 46.9669 270.972 46.6553 270.871C46.1897 271.744 45.7074 272.534 45.1172 273.181C44.0784 274.365 43.0176 274.991 42.127 274.978C41.0971 274.96 40.0909 274.978 39.2402 275.061C37.8331 274.909 36.2276 274.47 34.7285 273.674C34.4434 273.55 34.1653 273.416 33.8896 273.267C31.843 272.162 30.1419 270.873 28.792 269.631C28.4801 269.342 28.1891 269.062 27.9111 268.772C25.6545 266.375 25.4196 262.582 25.4814 261.127C25.4815 261.098 25.4813 261.068 25.4814 261.039C25.4885 260.668 25.4682 260.328 25.4492 259.951C25.4034 259.073 25.3756 257.825 25.8691 255.96C25.8214 255.438 25.7829 254.966 25.752 254.57C25.7421 254.443 25.7325 254.322 25.7236 254.215C25.2004 248.271 25.4185 242.271 25.8262 236.259C25.8155 236.182 25.805 236.104 25.7939 236.026C25.5792 234.497 25.3183 232.598 25.5615 231.374C25.8706 229.818 26.1896 228.757 26.4678 227.883C26.744 224.388 27.0028 220.896 27.1475 217.406C27.2389 216.552 27.1548 215.231 27.0137 213.918C26.858 212.481 26.6329 210.987 26.3662 209.478C26.1212 208.096 25.8499 206.701 25.5625 205.303C25.2322 204.525 24.8717 203.776 24.542 203.088C24.0767 202.109 23.6712 201.254 23.4707 200.51C22.9876 198.723 23.0406 196.627 23.0918 195.067C23.1003 194.814 23.108 194.572 23.1133 194.348C22.9931 193.829 22.8741 193.325 22.7529 192.799C22.7135 192.671 22.7307 192.265 22.7031 192.134C22.6086 191.446 22.513 190.765 22.417 190.092C22.4903 190.011 22.567 189.926 22.6455 189.841C23.626 188.782 23.5794 187.529 23.5127 185.552C23.4836 184.687 23.4515 183.688 23.499 182.513C23.5298 181.761 23.9222 181.35 24.2422 181.029C24.3362 180.933 24.4235 180.844 24.4941 180.754C24.7365 180.448 24.4623 180.133 24.1377 179.756C23.7166 179.265 23.2112 178.705 23.6436 177.902C25.0232 175.395 24.0443 174.306 23.3027 173.497C23.0854 173.258 22.8887 173.033 22.7783 172.809C22.421 172.086 22.7542 171.024 23.2207 170.243C23.5902 169.604 23.2071 168.355 22.7275 167.418C22.5461 167.054 22.5388 166.562 22.5322 165.999C22.5253 165.39 22.5191 164.724 22.3174 163.978C21.8077 162.116 21.5665 161.131 21.374 160.323C21.3192 160.1 21.2695 159.882 21.2178 159.666C21.0543 158.999 20.9242 158.161 20.7969 157.301C20.6443 156.273 20.4964 155.221 20.2949 154.386C20.4264 153.474 20.5364 152.79 20.7744 151.384L20.7412 151.812C20.9523 150.925 21.1518 149.707 21.3633 148.507C21.5464 147.461 22.4533 146.445 23.9189 145.757ZM348.254 275.73C349.563 275.945 350.952 276.121 352.604 276.192C352.753 276.219 352.897 276.245 353.058 276.266C353.584 276.336 354.157 276.446 354.878 276.528C355.074 276.743 355.253 277.03 354.978 277.346C354.909 277.412 354.832 277.478 354.666 277.542C354.586 277.574 354.502 277.604 354.385 277.632C354.25 277.659 354.09 277.683 353.897 277.698C353.757 277.714 353.458 277.712 353.118 277.683C353.031 277.675 352.939 277.666 352.841 277.654C352.738 277.64 352.653 277.63 352.476 277.597C352.155 277.537 351.778 277.453 351.306 277.303C350.954 277.188 349.986 276.879 348.741 276.068C348.667 276.017 348.493 275.906 348.254 275.73ZM364.646 262.714C364.719 263.1 364.743 263.415 364.764 263.665C364.793 264.402 364.699 264.676 364.636 264.855C364.632 264.714 364.628 264.581 364.623 264.455C364.622 264.425 364.622 264.395 364.621 264.365C364.607 263.965 364.62 263.623 364.634 263.223C364.639 263.063 364.644 262.894 364.646 262.714ZM354.552 215.43C354.516 215.481 354.484 215.514 354.458 215.528C354.385 215.571 354.378 215.48 354.468 215.44C354.485 215.432 354.514 215.428 354.552 215.43ZM356.057 153.17C356.054 153.193 356.042 153.281 356.062 153.571C356.066 153.441 356.07 153.328 356.068 153.24C356.067 153.182 356.062 153.139 356.057 153.17Z" fill="white"/>
<path d="M393.003 56H393V546H0V0H393.003V56ZM32 480H189V284H32V480ZM205 480H361V284H205V480ZM32 268H189V56H32V268ZM205 268H361V56H205V268Z" fill="#A6D9F9"/>
</g>
<defs>
<linearGradient id="paint0_linear_2371_521" x1="196.5" y1="226" x2="196.5" y2="546" gradientUnits="userSpaceOnUse">
<stop stop-color="#09070B" stop-opacity="0"/>
<stop offset="1" stop-color="#09070B"/>
</linearGradient>
<clipPath id="clip0_2371_521">
<rect width="393" height="546" fill="white"/>
</clipPath>
</defs>
</svg>
