<svg width="1000" height="1389" viewBox="0 0 1000 1389" fill="none" xmlns="http://www.w3.org/2000/svg" xmlns:xlink="http://www.w3.org/1999/xlink">
<g clip-path="url(#clip0_2376_800)">
<mask id="mask0_2376_800" style="mask-type:alpha" maskUnits="userSpaceOnUse" x="0" y="0" width="1000" height="1400">
<path d="M1000 1400H0V0H1000V1400ZM496 495C383.886 495 293 633.792 293 805C293 976.208 383.886 1115 496 1115C608.114 1115 699 976.208 699 805C699 633.792 608.114 495 496 495Z" fill="#D9D9D9"/>
</mask>
<g mask="url(#mask0_2376_800)">
<rect x="82" y="68" width="834" height="609" fill="url(#pattern0_2376_800)"/>
<rect x="82" y="645" width="834" height="609" fill="url(#pattern1_2376_800)"/>
<rect x="159" y="108" width="337" height="256" fill="url(#pattern2_2376_800)"/>
<rect width="337" height="189" transform="matrix(1 0 0 -1 159 469)" fill="url(#pattern3_2376_800)"/>
<rect x="478" y="108" width="344" height="256" fill="url(#pattern4_2376_800)"/>
<rect width="344" height="197" transform="matrix(1 0 0 -1 478 476)" fill="url(#pattern5_2376_800)"/>
<rect x="621" y="111.957" width="674.329" height="1023.74" transform="rotate(-3.48212 621 111.957)" fill="url(#pattern6_2376_800)"/>
<rect x="-292.906" y="89" width="786.823" height="1143.06" transform="rotate(11.6128 -292.906 89)" fill="url(#pattern7_2376_800)"/>
<rect x="82" y="501" width="835" height="857" fill="url(#paint0_linear_2376_800)"/>
<rect width="332" height="332" transform="matrix(-1 0 0 1 347 566)" fill="url(#pattern8_2376_800)"/>
<path d="M122.375 564.947C123.967 562.617 127.092 563.553 128.837 564.066C128.868 564.074 128.899 564.082 128.93 564.091C129.33 564.212 129.711 564.243 130.165 564.275C131.264 564.354 132.721 564.46 135.756 565.925C136.665 565.866 137.508 565.832 138.411 565.827C146.067 565.785 153.701 566.974 161.399 568.601C163.276 569.007 165.161 569.437 167.05 569.878C167.169 569.865 167.29 569.851 167.412 569.837C169.773 569.571 172.703 569.232 174.565 570.05C176.931 571.089 178.549 572.06 179.88 572.898C187.449 574.617 195.059 576.095 202.662 576.581C205.045 576.733 207.427 576.786 209.807 576.721C211.998 576.66 214.192 576.525 216.383 576.325C217.647 575.784 218.846 575.15 219.96 574.562C220.818 574.107 221.636 573.68 222.38 573.345C222.394 573.341 222.439 573.348 222.453 573.343C223.077 573.073 223.654 572.863 224.179 572.749C226.959 572.138 230.219 572.924 232.544 573.51C232.92 573.606 233.312 573.696 233.653 573.774C235.571 573.413 237.349 573.033 239.281 572.642C239.411 572.832 239.543 573.031 239.676 573.234C241.311 575.772 243.345 575.694 246.385 575.578C247.778 575.526 249.309 575.47 251.163 575.616C252.375 575.709 252.998 576.716 253.509 577.539C253.659 577.78 253.799 578.006 253.94 578.188C254.409 578.812 254.923 578.116 255.505 577.294C256.268 576.227 257.137 574.946 258.384 576.059C262.367 579.604 264.017 577.105 265.279 575.213C265.655 574.659 265.991 574.157 266.337 573.875C267.426 572.962 269.137 573.806 270.351 574.989C271.377 575.926 273.266 574.933 274.744 573.69C275.279 573.22 276.042 573.192 276.936 573.16C277.824 573.128 278.944 573.091 280.023 572.552C282.85 571.186 284.379 570.514 285.527 569.978C285.88 569.824 286.198 569.684 286.507 569.538C287.478 569.078 288.723 568.683 289.894 568.278C291.306 567.795 292.675 567.29 293.408 566.654C293.737 566.731 294.036 566.809 294.176 566.902C294.309 566.999 294.341 567.089 293.796 567.305C294.006 567.197 294.744 567.209 294.959 567.112C296.52 567.142 296.032 567.42 295.601 567.798C295.113 568.18 294.567 568.678 294.353 569.082C293.967 569.735 295.292 571.596 298.008 574.081C300.701 576.599 304.407 579.656 307.806 583.239C311.2 586.821 314.045 590.736 315.128 594.605C316.219 598.447 315.279 602.007 312.356 603.965C308.898 606.554 302.355 608.377 300.803 608.936L301.789 608.772C298.854 609.553 297.601 609.811 296.123 610.15C291.397 611.207 287.578 611.803 283.551 611.917C280.753 611.99 277.996 611.936 275.234 611.786C274.949 611.771 274.66 611.753 274.368 611.736C272.104 613.004 269.81 614.16 268.179 614.59C266.885 614.944 265.819 614.318 265.006 613.78C264.433 613.41 263.918 613.083 263.398 613.148C263.119 613.183 262.736 613.267 262.269 613.367C260.466 613.774 257.288 614.468 254.375 613.344C253.122 612.845 251.521 611.841 250.139 610.88C248.088 609.508 246.147 608.23 245.217 608.656C243.535 609.407 241.626 608.846 239.905 608.351C238.226 607.879 236.857 607.465 236.061 608.306C235.129 609.312 234.25 608.931 233.036 608.365C232.195 607.972 231.156 607.493 229.72 607.324C228.023 607.13 226.939 606.466 225.927 605.904C224.954 605.353 224.138 604.898 223.204 605.067L223.256 605.066C222.858 605.142 222.439 605.337 221.976 605.698C220.292 607.013 218.514 607.869 217.087 607.509C216.436 607.344 215.698 607.409 214.931 607.477C213.912 607.567 212.847 607.661 211.855 607.233C211.041 606.88 210.344 605.94 209.734 605.108C209.543 604.848 209.359 604.6 209.182 604.383C208.54 604.413 207.899 604.448 207.258 604.494C207.158 604.651 207.053 604.825 206.944 605.005C206.393 605.905 205.722 607.01 204.862 607.574C203.505 608.467 202.278 607.963 200.984 607.427C199.978 607.01 198.928 606.574 197.745 606.77C196.937 606.904 196.026 607.319 195.119 607.729C193.775 608.339 192.444 608.939 191.502 608.6C191.149 608.473 190.835 607.878 190.523 607.285C190.522 607.282 190.521 607.278 190.519 607.275C190.498 607.234 190.477 607.195 190.456 607.155C188.194 607.666 185.93 608.222 183.663 608.801C183.469 608.959 183.273 609.116 183.078 609.27C182.127 610.024 181.201 610.755 180.607 611.78C179.963 612.89 178.304 613.56 176.55 614.262C175.402 614.722 174.212 615.196 173.245 615.82C172.678 616.184 172.126 615.571 171.561 614.939C171.032 614.35 170.489 613.744 169.908 613.903C169.617 613.983 169.304 614.244 168.969 614.523C168.675 614.768 168.364 615.028 168.037 615.189C167.734 615.338 167.047 615.008 166.169 614.587C165.628 614.327 165.01 614.033 164.364 613.791C163.484 614 162.596 614.204 161.713 614.401C160.896 614.583 160.087 614.76 159.288 614.931C158.944 615.478 158.648 616.186 158.417 617.094C158.252 617.746 158.111 618.524 157.962 619.32C157.761 620.403 157.553 621.522 157.264 622.416C157.038 623.114 156.768 623.393 156.585 623.105C156.5 622.971 156.433 622.717 156.373 622.487C156.304 622.225 156.242 621.991 156.169 621.998C156.116 622.004 156.063 622.19 155.997 622.417C155.891 622.778 155.754 623.244 155.542 623.262C154.767 623.329 153.827 623.186 152.944 623.044C151.962 622.887 151 622.734 150.223 622.878C149.355 623.039 148.15 622.354 146.896 621.672C146.028 621.195 145.201 620.721 144.439 620.529C143.708 620.34 142.962 620.728 142.249 621.105C141.364 621.559 140.521 621.997 139.814 621.394C139.67 621.271 139.493 620.521 139.262 619.584C139.096 618.919 138.905 618.159 138.69 617.459C137.761 617.464 136.898 617.438 135.96 617.386C135.928 617.488 135.896 617.591 135.863 617.697C135.862 617.7 135.862 617.702 135.861 617.705C135.113 620.097 134.14 623.369 132.671 621.427C132.303 620.933 132.072 620.02 131.864 619.197C131.659 618.389 131.483 617.666 131.207 617.516C130.898 617.345 130.54 617.843 130.154 618.385C129.612 619.146 129.025 619.996 128.391 619.21C128.349 619.156 128.303 619.097 128.256 619.038C127.801 618.479 127.167 617.652 126.494 615.984C124.554 615.547 122.595 615.033 120.675 614.47C117.411 613.532 114.189 612.459 110.947 611.384C109.364 610.854 107.875 608.582 106.739 604.943C106.199 603.12 105.721 601.037 105.455 598.804C105.271 597.688 105.208 596.533 105.103 595.356C105.059 594.767 105.064 594.172 105.018 593.572C105.004 593.273 105.001 592.972 105 592.671C105 592.633 105 592.595 105 592.558C105 592.539 105 592.52 104.999 592.501C104.999 592.496 105 592.492 104.998 592.487C104.993 592.486 105.009 592.484 104.977 592.484C104.972 592.484 104.968 592.484 104.946 592.485C104.93 592.486 104.93 592.483 104.842 592.495C104.815 592.5 104.785 592.503 104.7 592.528C104.654 592.544 104.597 592.559 104.479 592.627C104.386 592.697 104.083 592.831 103.99 593.382C103.955 593.652 104.051 593.915 104.152 594.062C104.255 594.214 104.352 594.287 104.421 594.336C104.56 594.429 104.628 594.446 104.679 594.465C104.776 594.496 104.807 594.498 104.836 594.504C104.989 594.524 104.946 594.514 104.967 594.517C104.976 594.517 104.979 594.517 104.982 594.517C104.991 594.518 104.992 594.518 104.994 594.518C104.996 594.519 104.997 594.52 104.997 594.52C104.999 594.523 104.999 594.525 104.999 594.527C105 594.537 105 594.546 105 594.556C105 594.631 105 594.707 105 594.782C105 594.933 105.001 595.085 105.001 595.236C105.001 595.387 105 595.539 105 595.69C105 595.765 105 595.841 105 595.916C104.999 595.926 105 595.935 104.998 595.945C104.996 595.947 104.998 595.949 104.99 595.952C104.981 595.952 105.003 595.953 104.94 595.953C104.924 595.952 104.919 595.953 104.843 595.949C104.821 595.947 104.795 595.946 104.739 595.94C104.663 595.925 104.655 595.953 104.247 595.835C104.13 595.794 103.98 595.756 103.664 595.558C103.508 595.454 103.296 595.307 103.049 594.989C102.797 594.666 102.53 594.105 102.547 593.452C102.554 592.803 102.847 592.254 103.083 591.968C103.33 591.666 103.53 591.53 103.689 591.426C103.993 591.24 104.142 591.202 104.255 591.162C104.655 591.048 104.665 591.074 104.74 591.06C104.925 591.043 104.899 591.049 104.928 591.047C104.945 591.046 104.952 591.046 104.959 591.046C104.979 591.045 104.98 591.045 104.984 591.045C104.995 591.043 104.994 591.042 104.995 591.041C104.999 591.036 104.998 591.032 104.999 591.027C105 591.008 104.999 590.989 105 590.97C105 590.933 105 590.895 105 590.857C105.001 590.556 105.004 590.255 105.018 589.956C105.063 589.357 105.058 588.762 105.1 588.173C105.203 586.995 105.265 585.842 105.445 584.725C105.706 582.493 106.175 580.41 106.704 578.586C107.82 574.943 109.285 572.666 110.854 572.129C113.423 571.264 115.941 570.396 118.507 569.594C118.645 569.493 118.779 569.395 118.907 569.303C119.88 568.62 120.817 567.253 121.729 565.883C121.942 565.568 122.157 565.253 122.375 564.947Z" fill="white"/>
<path d="M69.2019 607.783C63.4441 601.681 62.8451 592.026 63.0031 588.323C63.0032 588.249 63.0034 588.174 63.0036 588.101C63.0217 587.154 62.9689 586.291 62.9204 585.332C62.8034 583.095 62.7329 579.917 63.9922 575.171C63.8705 573.842 63.7717 572.641 63.6927 571.632C63.6675 571.309 63.6426 571.001 63.62 570.73C62.2852 555.598 62.8437 540.325 63.8837 525.023C63.8562 524.828 63.8282 524.629 63.7999 524.427C63.2521 520.536 62.5876 515.704 63.2084 512.589C63.997 508.628 64.8089 505.926 65.5186 503.701C66.2233 494.805 66.8838 485.916 67.2529 477.034C67.4862 474.859 67.2727 471.496 66.9126 468.155C66.5154 464.496 65.9402 460.693 65.2597 456.852C64.6347 453.333 63.942 449.783 63.2087 446.225C62.3661 444.245 61.4481 442.339 60.607 440.588C59.4198 438.096 58.3856 435.919 57.8742 434.025C56.6419 429.476 56.7757 424.142 56.9062 420.17C56.9278 419.526 56.9486 418.912 56.962 418.341C56.6554 417.02 56.353 415.738 56.0438 414.399C55.9428 414.073 55.9859 413.039 55.9155 412.705C55.6744 410.954 55.4301 409.222 55.1851 407.508C55.3725 407.302 55.5678 407.085 55.7683 406.869C58.2703 404.174 58.1507 400.984 57.9806 395.951C57.9065 393.748 57.8246 391.207 57.9458 388.215C58.0244 386.301 59.0241 385.254 59.8406 384.437C60.0807 384.194 60.3052 383.967 60.4857 383.739C61.1042 382.959 60.4028 382.158 59.5747 381.198C58.5003 379.947 57.2118 378.522 58.3153 376.477C61.8352 370.097 59.3373 367.324 57.4454 365.267C56.8907 364.658 56.3895 364.086 56.1079 363.515C55.1953 361.675 56.0459 358.97 57.2363 356.983C58.1791 355.356 57.2015 352.175 55.9779 349.791C55.5149 348.864 55.4964 347.613 55.4795 346.18C55.4618 344.629 55.4464 342.933 54.9314 341.033C53.6311 336.292 53.0167 333.788 52.5256 331.729C52.3857 331.164 52.259 330.61 52.1271 330.061C51.7099 328.363 51.3766 326.228 51.0518 324.039C50.6625 321.422 50.2852 318.745 49.7711 316.618C50.1065 314.296 50.3881 312.556 50.9954 308.977L50.9119 310.065C51.4504 307.808 51.959 304.71 52.4985 301.654C52.9657 298.992 55.279 296.405 59.0189 294.653C62.7612 292.895 67.5852 292.117 72.5165 292.401C77.4493 292.688 82.1462 293.977 85.7165 295.896C89.2828 297.823 91.4144 300.233 91.7378 302.761C92.1004 305.718 92.5157 308.637 92.7575 312.266C92.715 312.446 92.7377 313.01 92.6867 313.188C92.917 314.006 93.1047 316.482 93.3153 318.462C93.909 324.456 94.3893 330.726 94.3747 336.987C94.3665 341.351 94.2619 345.742 94.0785 350.142C94.0596 350.589 94.0386 351.04 94.0181 351.494C95.2608 355.185 96.4056 358.854 96.8312 361.455C97.1821 363.584 96.5545 365.18 96.0178 366.515C95.6486 367.438 95.3229 368.289 95.3889 369.102C95.4244 369.54 95.5086 370.14 95.6103 370.871C96.0252 373.876 96.7378 378.905 95.6464 383.569C95.1618 385.643 94.1747 388.036 93.2358 390.356C91.8923 393.638 90.6474 396.747 91.0913 398.253C91.8725 400.952 91.3503 404.033 90.893 406.809C90.5794 408.672 90.2966 410.392 90.4786 411.695L90.3645 410.189C90.4832 410.69 90.6682 411.114 90.9445 411.446C92.1085 412.831 91.8759 414.186 91.5357 416.165C91.3031 417.559 91.017 419.228 91.1264 421.501C91.2479 424.083 90.8284 425.995 90.4754 427.627C89.9766 429.902 89.6143 431.658 91.1167 433.892C92.7913 436.406 94.0447 439.087 94.0192 441.362C94.0093 442.41 94.2472 443.552 94.4992 444.748C94.8327 446.33 95.1898 448.008 95.0104 449.611C94.8668 450.956 94.1087 452.17 93.4385 453.248C93.2285 453.578 93.0306 453.908 92.8607 454.221C93.054 455.235 93.2567 456.267 93.4644 457.271C93.6466 457.414 93.8464 457.561 94.0528 457.714C95.0872 458.476 96.3565 459.412 97.1386 460.754C98.3734 462.868 98.188 464.999 97.9571 467.324C97.7756 469.152 97.5764 471.068 97.9507 473.452C98.0422 474.037 98.1696 474.701 98.3077 475.374C98.5318 476.245 98.8299 477.16 99.1273 478.072C99.8231 480.199 100.515 482.302 100.243 483.806C100.141 484.371 99.5688 484.886 98.9994 485.395C98.9958 485.397 98.9923 485.399 98.9888 485.402C98.9501 485.436 98.9125 485.471 98.874 485.505C99.5518 489.097 100.289 492.681 101.064 496.265C101.239 496.568 101.413 496.875 101.584 497.178C102.421 498.664 103.235 500.104 104.314 501.005C105.482 501.982 106.305 504.582 107.18 507.318C107.753 509.113 108.347 510.967 109.07 512.459C109.492 513.328 108.939 514.236 108.368 515.162C107.835 516.024 107.289 516.917 107.511 517.827C107.623 518.283 107.918 518.76 108.233 519.268C108.511 519.718 108.806 520.196 109.003 520.702C109.186 521.174 108.933 522.263 108.615 523.68C108.418 524.553 108.195 525.533 108.032 526.574C108.633 529.209 109.226 531.882 109.793 534.519C110.383 535.037 111.127 535.463 112.063 535.77C112.735 535.99 113.529 536.158 114.342 536.33C115.447 536.562 116.59 536.807 117.518 537.201C118.243 537.509 118.556 537.915 118.293 538.227C118.17 538.373 117.925 538.497 117.704 538.61C117.451 538.739 117.226 538.855 117.243 538.97C117.255 539.054 117.448 539.125 117.682 539.212C118.056 539.35 118.539 539.541 118.585 539.881C118.756 541.149 118.733 542.603 118.711 544.027C118.686 545.615 118.662 547.146 118.911 548.376C119.188 549.728 118.673 551.732 118.166 553.768C117.809 555.154 117.459 556.586 117.372 557.775C117.287 558.944 117.78 560.113 118.26 561.223C118.838 562.581 119.396 563.871 118.899 565.058C118.85 565.175 118.65 565.319 118.352 565.487C118.051 565.722 117.646 565.987 117.193 566.276C116.56 566.677 115.835 567.137 115.169 567.61C115.312 569.457 115.371 571.12 115.393 572.675C115.497 572.724 115.603 572.776 115.712 572.827C115.714 572.827 115.717 572.828 115.719 572.829C118.169 573.974 121.505 575.501 119.672 577.584C119.207 578.114 118.313 578.474 117.509 578.802C116.72 579.122 116.014 579.413 115.888 579.763C115.745 580.16 116.275 580.567 116.854 580.961C117.667 581.524 118.575 582.042 117.864 582.679C117.816 582.723 117.763 582.771 117.71 582.819C117.207 583.287 116.464 583.911 114.91 584.659C114.644 586.044 114.745 586.197 112.477 584.156C110.889 582.681 107.26 581.259 105.615 581.576C109.122 582.801 112.238 584.16 115.256 585.566C117.857 586.786 119.778 589.7 120.558 593.727C121.518 597.79 120.288 602.438 120 607.236C117.704 611.782 115.848 615.992 113.093 619.005C110.443 622.019 107.739 623.615 105.466 623.581C102.839 623.535 100.273 623.58 98.1023 623.792C94.5126 623.405 90.4171 622.288 86.5927 620.261C85.8653 619.945 85.1566 619.603 84.4534 619.224C79.2319 616.413 74.8908 613.133 71.447 609.971C70.6513 609.235 69.9111 608.522 69.2019 607.783Z" fill="white"/>
<path d="M122.375 1149.45C123.967 1147.12 127.092 1148.05 128.837 1148.57C128.868 1148.57 128.899 1148.58 128.93 1148.59C129.33 1148.71 129.711 1148.74 130.165 1148.78C131.264 1148.85 132.721 1148.96 135.756 1150.43C136.665 1150.37 137.508 1150.33 138.411 1150.33C146.067 1150.29 153.701 1151.47 161.399 1153.1C163.276 1153.51 165.161 1153.94 167.05 1154.38C167.169 1154.36 167.29 1154.35 167.412 1154.34C169.773 1154.07 172.703 1153.73 174.565 1154.55C176.931 1155.59 178.549 1156.56 179.88 1157.4C187.449 1159.12 195.059 1160.59 202.662 1161.08C205.045 1161.23 207.427 1161.29 209.807 1161.22C211.998 1161.16 214.192 1161.03 216.383 1160.83C217.647 1160.28 218.846 1159.65 219.96 1159.06C220.818 1158.61 221.636 1158.18 222.38 1157.85C222.394 1157.84 222.439 1157.85 222.453 1157.84C223.077 1157.57 223.654 1157.36 224.179 1157.25C226.959 1156.64 230.219 1157.42 232.544 1158.01C232.92 1158.11 233.312 1158.2 233.653 1158.27C235.571 1157.91 237.349 1157.53 239.281 1157.14C239.411 1157.33 239.543 1157.53 239.676 1157.73C241.311 1160.27 243.345 1160.19 246.385 1160.08C247.778 1160.03 249.309 1159.97 251.163 1160.12C252.375 1160.21 252.998 1161.22 253.509 1162.04C253.659 1162.28 253.799 1162.51 253.94 1162.69C254.409 1163.31 254.923 1162.62 255.505 1161.79C256.268 1160.73 257.137 1159.45 258.384 1160.56C262.367 1164.1 264.017 1161.6 265.279 1159.71C265.655 1159.16 265.991 1158.66 266.337 1158.38C267.426 1157.46 269.137 1158.31 270.351 1159.49C271.377 1160.43 273.266 1159.43 274.744 1158.19C275.279 1157.72 276.042 1157.69 276.936 1157.66C277.824 1157.63 278.944 1157.59 280.023 1157.05C282.85 1155.69 284.379 1155.01 285.527 1154.48C285.88 1154.32 286.198 1154.18 286.507 1154.04C287.478 1153.58 288.723 1153.18 289.894 1152.78C291.306 1152.3 292.675 1151.79 293.408 1151.15C293.737 1151.23 294.036 1151.31 294.176 1151.4C294.309 1151.5 294.341 1151.59 293.796 1151.8C294.006 1151.7 294.744 1151.71 294.959 1151.61C296.52 1151.64 296.032 1151.92 295.601 1152.3C295.113 1152.68 294.567 1153.18 294.353 1153.58C293.967 1154.23 295.292 1156.1 298.008 1158.58C300.701 1161.1 304.407 1164.16 307.806 1167.74C311.2 1171.32 314.045 1175.24 315.128 1179.1C316.219 1182.95 315.279 1186.51 312.356 1188.46C308.898 1191.05 302.355 1192.88 300.803 1193.44L301.789 1193.27C298.854 1194.05 297.601 1194.31 296.123 1194.65C291.397 1195.71 287.578 1196.3 283.551 1196.42C280.753 1196.49 277.996 1196.44 275.234 1196.29C274.949 1196.27 274.66 1196.25 274.368 1196.24C272.104 1197.5 269.81 1198.66 268.179 1199.09C266.885 1199.44 265.819 1198.82 265.006 1198.28C264.433 1197.91 263.918 1197.58 263.398 1197.65C263.119 1197.68 262.736 1197.77 262.269 1197.87C260.466 1198.27 257.288 1198.97 254.375 1197.84C253.122 1197.34 251.521 1196.34 250.139 1195.38C248.088 1194.01 246.147 1192.73 245.217 1193.16C243.535 1193.91 241.626 1193.35 239.905 1192.85C238.226 1192.38 236.857 1191.96 236.061 1192.81C235.129 1193.81 234.25 1193.43 233.036 1192.86C232.195 1192.47 231.156 1191.99 229.72 1191.82C228.023 1191.63 226.939 1190.97 225.927 1190.4C224.954 1189.85 224.138 1189.4 223.204 1189.57L223.256 1189.57C222.858 1189.64 222.439 1189.84 221.976 1190.2C220.292 1191.51 218.514 1192.37 217.087 1192.01C216.436 1191.84 215.698 1191.91 214.931 1191.98C213.912 1192.07 212.847 1192.16 211.855 1191.73C211.041 1191.38 210.344 1190.44 209.734 1189.61C209.543 1189.35 209.359 1189.1 209.182 1188.88C208.54 1188.91 207.899 1188.95 207.258 1188.99C207.158 1189.15 207.053 1189.33 206.944 1189.5C206.393 1190.41 205.722 1191.51 204.862 1192.07C203.505 1192.97 202.278 1192.46 200.984 1191.93C199.978 1191.51 198.928 1191.07 197.745 1191.27C196.937 1191.4 196.026 1191.82 195.119 1192.23C193.775 1192.84 192.444 1193.44 191.502 1193.1C191.149 1192.97 190.835 1192.38 190.523 1191.79C190.522 1191.78 190.521 1191.78 190.519 1191.77C190.498 1191.73 190.477 1191.7 190.456 1191.66C188.194 1192.17 185.93 1192.72 183.663 1193.3C183.469 1193.46 183.273 1193.62 183.078 1193.77C182.127 1194.52 181.201 1195.26 180.607 1196.28C179.963 1197.39 178.304 1198.06 176.55 1198.76C175.402 1199.22 174.212 1199.7 173.245 1200.32C172.678 1200.68 172.126 1200.07 171.561 1199.44C171.032 1198.85 170.489 1198.24 169.908 1198.4C169.617 1198.48 169.304 1198.74 168.969 1199.02C168.675 1199.27 168.364 1199.53 168.037 1199.69C167.734 1199.84 167.047 1199.51 166.169 1199.09C165.628 1198.83 165.01 1198.53 164.364 1198.29C163.484 1198.5 162.596 1198.7 161.713 1198.9C160.896 1199.08 160.087 1199.26 159.288 1199.43C158.944 1199.98 158.648 1200.69 158.417 1201.59C158.252 1202.25 158.111 1203.02 157.962 1203.82C157.761 1204.9 157.553 1206.02 157.264 1206.92C157.038 1207.61 156.768 1207.89 156.585 1207.6C156.5 1207.47 156.433 1207.22 156.373 1206.99C156.304 1206.72 156.242 1206.49 156.169 1206.5C156.116 1206.5 156.063 1206.69 155.997 1206.92C155.891 1207.28 155.754 1207.74 155.542 1207.76C154.767 1207.83 153.827 1207.69 152.944 1207.54C151.962 1207.39 151 1207.23 150.223 1207.38C149.355 1207.54 148.15 1206.85 146.896 1206.17C146.028 1205.7 145.201 1205.22 144.439 1205.03C143.708 1204.84 142.962 1205.23 142.249 1205.61C141.364 1206.06 140.521 1206.5 139.814 1205.89C139.67 1205.77 139.493 1205.02 139.262 1204.08C139.096 1203.42 138.905 1202.66 138.69 1201.96C137.761 1201.96 136.898 1201.94 135.96 1201.89C135.928 1201.99 135.896 1202.09 135.863 1202.2C135.862 1202.2 135.862 1202.2 135.861 1202.2C135.113 1204.6 134.14 1207.87 132.671 1205.93C132.303 1205.43 132.072 1204.52 131.864 1203.7C131.659 1202.89 131.483 1202.17 131.207 1202.02C130.898 1201.84 130.54 1202.34 130.154 1202.88C129.612 1203.65 129.025 1204.5 128.391 1203.71C128.349 1203.66 128.303 1203.6 128.256 1203.54C127.801 1202.98 127.167 1202.15 126.494 1200.48C124.554 1200.05 122.595 1199.53 120.675 1198.97C117.411 1198.03 114.189 1196.96 110.947 1195.88C109.364 1195.35 107.875 1193.08 106.739 1189.44C106.199 1187.62 105.721 1185.54 105.455 1183.3C105.271 1182.19 105.208 1181.03 105.103 1179.86C105.059 1179.27 105.064 1178.67 105.018 1178.07C105.004 1177.77 105.001 1177.47 105 1177.17C105 1177.13 105 1177.1 105 1177.06C105 1177.04 105 1177.02 104.999 1177C104.999 1177 105 1176.99 104.998 1176.99C104.993 1176.99 105.009 1176.98 104.977 1176.98C104.972 1176.98 104.968 1176.98 104.946 1176.98C104.93 1176.99 104.93 1176.98 104.842 1177C104.815 1177 104.785 1177 104.7 1177.03C104.654 1177.04 104.597 1177.06 104.479 1177.13C104.386 1177.2 104.083 1177.33 103.99 1177.88C103.955 1178.15 104.051 1178.42 104.152 1178.56C104.255 1178.71 104.352 1178.79 104.421 1178.84C104.56 1178.93 104.628 1178.95 104.679 1178.96C104.776 1179 104.807 1179 104.836 1179C104.989 1179.02 104.946 1179.01 104.967 1179.02C104.976 1179.02 104.979 1179.02 104.982 1179.02C104.991 1179.02 104.992 1179.02 104.994 1179.02C104.996 1179.02 104.997 1179.02 104.997 1179.02C104.999 1179.02 104.999 1179.02 104.999 1179.03C105 1179.04 105 1179.05 105 1179.06C105 1179.13 105 1179.21 105 1179.28C105 1179.43 105.001 1179.58 105.001 1179.74C105.001 1179.89 105 1180.04 105 1180.19C105 1180.27 105 1180.34 105 1180.42C104.999 1180.43 105 1180.44 104.998 1180.44C104.996 1180.45 104.998 1180.45 104.99 1180.45C104.981 1180.45 105.003 1180.45 104.94 1180.45C104.924 1180.45 104.919 1180.45 104.843 1180.45C104.821 1180.45 104.795 1180.45 104.739 1180.44C104.663 1180.43 104.655 1180.45 104.247 1180.34C104.13 1180.29 103.98 1180.26 103.664 1180.06C103.508 1179.95 103.296 1179.81 103.049 1179.49C102.797 1179.17 102.53 1178.61 102.547 1177.95C102.554 1177.3 102.847 1176.75 103.083 1176.47C103.33 1176.17 103.53 1176.03 103.689 1175.93C103.993 1175.74 104.142 1175.7 104.255 1175.66C104.655 1175.55 104.665 1175.57 104.74 1175.56C104.925 1175.54 104.899 1175.55 104.928 1175.55C104.945 1175.55 104.952 1175.55 104.959 1175.55C104.979 1175.55 104.98 1175.55 104.984 1175.54C104.995 1175.54 104.994 1175.54 104.995 1175.54C104.999 1175.54 104.998 1175.53 104.999 1175.53C105 1175.51 104.999 1175.49 105 1175.47C105 1175.43 105 1175.39 105 1175.36C105.001 1175.06 105.004 1174.76 105.018 1174.46C105.063 1173.86 105.058 1173.26 105.1 1172.67C105.203 1171.5 105.265 1170.34 105.445 1169.23C105.706 1166.99 106.175 1164.91 106.704 1163.09C107.82 1159.44 109.285 1157.17 110.854 1156.63C113.423 1155.76 115.941 1154.9 118.507 1154.09C118.645 1153.99 118.779 1153.89 118.907 1153.8C119.88 1153.12 120.817 1151.75 121.729 1150.38C121.942 1150.07 122.157 1149.75 122.375 1149.45Z" fill="white"/>
<path d="M69.2019 1192.28C63.4441 1186.18 62.8451 1176.53 63.0031 1172.82C63.0032 1172.75 63.0034 1172.67 63.0036 1172.6C63.0217 1171.65 62.9689 1170.79 62.9204 1169.83C62.8034 1167.6 62.7329 1164.42 63.9922 1159.67C63.8705 1158.34 63.7717 1157.14 63.6927 1156.13C63.6675 1155.81 63.6426 1155.5 63.62 1155.23C62.2852 1140.1 62.8437 1124.83 63.8837 1109.52C63.8562 1109.33 63.8282 1109.13 63.7999 1108.93C63.2521 1105.04 62.5876 1100.2 63.2084 1097.09C63.997 1093.13 64.8089 1090.43 65.5186 1088.2C66.2233 1079.3 66.8838 1070.42 67.2529 1061.53C67.4862 1059.36 67.2727 1056 66.9126 1052.65C66.5154 1049 65.9402 1045.19 65.2597 1041.35C64.6347 1037.83 63.942 1034.28 63.2087 1030.73C62.3661 1028.74 61.4481 1026.84 60.607 1025.09C59.4198 1022.6 58.3856 1020.42 57.8742 1018.53C56.6419 1013.98 56.7757 1008.64 56.9062 1004.67C56.9278 1004.03 56.9486 1003.41 56.962 1002.84C56.6554 1001.52 56.353 1000.24 56.0438 998.899C55.9428 998.573 55.9859 997.539 55.9155 997.205C55.6744 995.454 55.4301 993.722 55.1851 992.008C55.3725 991.802 55.5678 991.585 55.7683 991.369C58.2703 988.674 58.1507 985.484 57.9806 980.451C57.9065 978.248 57.8246 975.707 57.9458 972.715C58.0244 970.801 59.0241 969.754 59.8406 968.937C60.0807 968.694 60.3052 968.467 60.4857 968.239C61.1042 967.459 60.4028 966.658 59.5747 965.698C58.5003 964.447 57.2118 963.022 58.3153 960.977C61.8352 954.597 59.3373 951.824 57.4454 949.767C56.8907 949.158 56.3895 948.586 56.1079 948.015C55.1953 946.175 56.0459 943.47 57.2363 941.483C58.1791 939.856 57.2015 936.675 55.9779 934.291C55.5149 933.364 55.4964 932.113 55.4795 930.68C55.4618 929.129 55.4464 927.433 54.9314 925.533C53.6311 920.792 53.0167 918.288 52.5256 916.229C52.3857 915.664 52.259 915.11 52.1271 914.561C51.7099 912.863 51.3766 910.728 51.0518 908.539C50.6625 905.922 50.2852 903.245 49.7711 901.118C50.1065 898.796 50.3881 897.056 50.9954 893.477L50.9119 894.565C51.4504 892.308 51.959 889.21 52.4985 886.154C52.9657 883.492 55.279 880.905 59.0189 879.153C62.7612 877.395 67.5852 876.617 72.5165 876.901C77.4493 877.188 82.1462 878.477 85.7165 880.396C89.2828 882.323 91.4144 884.733 91.7378 887.261C92.1004 890.218 92.5157 893.137 92.7575 896.766C92.715 896.946 92.7377 897.51 92.6867 897.688C92.917 898.506 93.1047 900.982 93.3153 902.962C93.909 908.956 94.3893 915.226 94.3747 921.487C94.3665 925.851 94.2619 930.242 94.0785 934.642C94.0596 935.089 94.0386 935.54 94.0181 935.994C95.2608 939.685 96.4056 943.354 96.8312 945.955C97.1821 948.084 96.5545 949.68 96.0178 951.015C95.6486 951.938 95.3229 952.789 95.3889 953.602C95.4244 954.04 95.5086 954.64 95.6103 955.371C96.0252 958.376 96.7378 963.405 95.6464 968.069C95.1618 970.143 94.1747 972.536 93.2358 974.856C91.8923 978.138 90.6474 981.247 91.0913 982.753C91.8725 985.452 91.3503 988.533 90.893 991.309C90.5794 993.172 90.2966 994.892 90.4786 996.195L90.3645 994.689C90.4832 995.19 90.6682 995.614 90.9445 995.946C92.1085 997.331 91.8759 998.686 91.5357 1000.66C91.3031 1002.06 91.017 1003.73 91.1264 1006C91.2479 1008.58 90.8284 1010.49 90.4754 1012.13C89.9766 1014.4 89.6143 1016.16 91.1167 1018.39C92.7913 1020.91 94.0447 1023.59 94.0192 1025.86C94.0093 1026.91 94.2472 1028.05 94.4992 1029.25C94.8327 1030.83 95.1898 1032.51 95.0104 1034.11C94.8668 1035.46 94.1087 1036.67 93.4385 1037.75C93.2285 1038.08 93.0306 1038.41 92.8607 1038.72C93.054 1039.74 93.2567 1040.77 93.4644 1041.77C93.6466 1041.91 93.8464 1042.06 94.0528 1042.21C95.0872 1042.98 96.3565 1043.91 97.1386 1045.25C98.3734 1047.37 98.188 1049.5 97.9571 1051.82C97.7756 1053.65 97.5764 1055.57 97.9507 1057.95C98.0422 1058.54 98.1696 1059.2 98.3077 1059.87C98.5318 1060.75 98.8299 1061.66 99.1273 1062.57C99.8231 1064.7 100.515 1066.8 100.243 1068.31C100.141 1068.87 99.5688 1069.39 98.9994 1069.89C98.9958 1069.9 98.9923 1069.9 98.9888 1069.9C98.9501 1069.94 98.9125 1069.97 98.874 1070.01C99.5518 1073.6 100.289 1077.18 101.064 1080.76C101.239 1081.07 101.413 1081.37 101.584 1081.68C102.421 1083.16 103.235 1084.6 104.314 1085.5C105.482 1086.48 106.305 1089.08 107.18 1091.82C107.753 1093.61 108.347 1095.47 109.07 1096.96C109.492 1097.83 108.939 1098.74 108.368 1099.66C107.835 1100.52 107.289 1101.42 107.511 1102.33C107.623 1102.78 107.918 1103.26 108.233 1103.77C108.511 1104.22 108.806 1104.7 109.003 1105.2C109.186 1105.67 108.933 1106.76 108.615 1108.18C108.418 1109.05 108.195 1110.03 108.032 1111.07C108.633 1113.71 109.226 1116.38 109.793 1119.02C110.383 1119.54 111.127 1119.96 112.063 1120.27C112.735 1120.49 113.529 1120.66 114.342 1120.83C115.447 1121.06 116.59 1121.31 117.518 1121.7C118.243 1122.01 118.556 1122.41 118.293 1122.73C118.17 1122.87 117.925 1123 117.704 1123.11C117.451 1123.24 117.226 1123.35 117.243 1123.47C117.255 1123.55 117.448 1123.62 117.682 1123.71C118.056 1123.85 118.539 1124.04 118.585 1124.38C118.756 1125.65 118.733 1127.1 118.711 1128.53C118.686 1130.12 118.662 1131.65 118.911 1132.88C119.188 1134.23 118.673 1136.23 118.166 1138.27C117.809 1139.65 117.459 1141.09 117.372 1142.28C117.287 1143.44 117.78 1144.61 118.26 1145.72C118.838 1147.08 119.396 1148.37 118.899 1149.56C118.85 1149.67 118.65 1149.82 118.352 1149.99C118.051 1150.22 117.646 1150.49 117.193 1150.78C116.56 1151.18 115.835 1151.64 115.169 1152.11C115.312 1153.96 115.371 1155.62 115.393 1157.17C115.497 1157.22 115.603 1157.28 115.712 1157.33C115.714 1157.33 115.717 1157.33 115.719 1157.33C118.169 1158.47 121.505 1160 119.672 1162.08C119.207 1162.61 118.313 1162.97 117.509 1163.3C116.72 1163.62 116.014 1163.91 115.888 1164.26C115.745 1164.66 116.275 1165.07 116.854 1165.46C117.667 1166.02 118.575 1166.54 117.864 1167.18C117.816 1167.22 117.763 1167.27 117.71 1167.32C117.207 1167.79 116.464 1168.41 114.91 1169.16C114.644 1170.54 114.745 1170.7 112.477 1168.66C110.889 1167.18 107.26 1165.76 105.615 1166.08C109.122 1167.3 112.238 1168.66 115.256 1170.07C117.857 1171.29 119.778 1174.2 120.558 1178.23C121.518 1182.29 120.288 1186.94 120 1191.74C117.704 1196.28 115.848 1200.49 113.093 1203.51C110.443 1206.52 107.739 1208.11 105.466 1208.08C102.839 1208.04 100.273 1208.08 98.1023 1208.29C94.5126 1207.9 90.4171 1206.79 86.5927 1204.76C85.8653 1204.44 85.1566 1204.1 84.4534 1203.72C79.2319 1200.91 74.8908 1197.63 71.447 1194.47C70.6513 1193.74 69.9111 1193.02 69.2019 1192.28Z" fill="white"/>
<path d="M911.058 524.931C907.82 524.559 905.047 527.955 903.465 529.831C903.436 529.864 903.406 529.898 903.376 529.932C902.998 530.38 902.587 530.737 902.121 531.138C900.999 532.1 899.461 533.428 896.961 537.118C895.928 537.812 894.951 538.49 893.957 539.21C883.297 546.909 873.534 555.61 863.688 563.273C863.545 563.333 863.4 563.393 863.255 563.453C860.411 564.64 856.964 565.898 855.265 567.516C853.04 569.612 851.656 571.159 850.485 572.46C846.479 574.839 842.479 576.594 839.552 577.316C834.164 577.957 828.691 578.498 823.07 579.009C819.332 579.35 815.524 579.682 811.674 580.036C808.129 580.361 804.549 580.734 800.989 581.164C798.849 580.994 796.779 580.759 794.868 580.568C792.175 580.302 789.778 580.124 787.887 580.334C786.317 580.51 784.75 580.874 783.203 581.352C780.373 582.234 777.715 583.481 775.534 584.516C774.994 584.772 774.486 585.015 774.015 585.234C771.199 585.686 768.342 586.148 765.531 586.606C765.402 586.845 765.275 587.092 765.146 587.345C763.542 590.498 760.695 591.304 756.252 592.613C754.305 593.187 752.072 593.854 749.504 594.853C747.843 595.498 747.291 596.743 746.84 597.759C746.708 598.058 746.584 598.337 746.444 598.575C745.969 599.39 745.035 598.967 743.952 598.462C742.537 597.809 740.879 597.013 739.49 598.652C735.129 603.855 731.984 602.274 729.61 601.073C728.91 600.722 728.278 600.405 727.704 600.299C725.858 599.952 723.846 601.51 722.514 603.191C721.489 604.516 718.448 604.461 716.106 603.902C715.197 603.698 714.156 603.997 712.961 604.337C711.727 604.687 710.229 605.109 708.605 605.03C704.382 604.86 702.28 604.723 700.64 604.602C700.153 604.57 699.709 604.54 699.274 604.5C697.926 604.368 696.258 604.361 694.786 604.264C692.933 604.169 691.301 603.943 690.32 603.445C689.085 603.873 688.175 604.167 688.221 604.525C688.206 604.942 689.833 605.241 692.67 607.925C694.064 609.276 694.909 611.558 694.518 613.227C694.176 614.955 692.844 616.018 691.084 616.506C687.501 617.453 682.659 616.488 677.736 616.5C672.834 616.512 667.878 617.384 664.758 621.113C661.527 624.515 661.822 633.053 667.864 638.349C680.278 648 688.429 646.258 694.849 646.791C702.681 646.74 709.234 645.656 715.334 644.074C719.628 642.938 723.637 641.646 727.645 640.214C728.045 640.07 728.446 639.924 728.848 639.776C732.577 639.912 736.211 639.929 738.644 639.574C740.631 639.287 741.869 638.212 742.858 637.314C743.548 636.693 744.162 636.142 744.906 635.961C745.306 635.864 745.864 635.765 746.539 635.644C749.245 635.166 753.856 634.347 757.502 631.952C759.097 630.896 760.886 629.246 762.528 627.698C764.912 625.473 767.145 623.411 768.582 623.401C771.125 623.376 773.57 622.019 775.785 620.817C777.869 619.679 779.71 618.693 781.051 619.171C782.643 619.745 783.656 619.046 785.186 618.012C786.251 617.295 787.547 616.423 789.446 615.713C790.33 615.384 791.09 615.013 791.763 614.627C792.725 614.065 793.483 613.479 794.182 612.95C795.822 611.707 797.088 610.78 799.372 611.468C801.909 612.234 804.361 612.613 806.135 611.928C806.944 611.615 807.912 611.516 808.917 611.427C810.25 611.308 811.645 611.206 812.882 610.621C813.901 610.138 814.695 609.103 815.419 608.191C815.645 607.906 815.862 607.635 816.076 607.395C816.948 607.339 817.822 607.296 818.701 607.27C818.852 607.415 819.011 607.577 819.177 607.744C820.014 608.581 821.025 609.614 822.23 610.104C824.142 610.88 825.779 610.297 827.552 609.693C828.927 609.223 830.381 608.742 832.067 608.898C833.211 609.004 834.524 609.394 835.837 609.785C837.044 610.148 838.247 610.511 839.323 610.647C840.251 610.731 841.103 610.706 841.822 610.541C842.542 610.375 843.125 609.735 843.676 609.092C843.679 609.088 843.681 609.085 843.683 609.081C843.721 609.037 843.759 608.994 843.796 608.951C848.253 609.056 852.542 608.708 856.59 608.172C856.968 608.231 857.351 608.284 857.732 608.333C859.607 608.568 861.397 608.747 862.734 609.37C864.194 610.047 867.226 609.673 870.298 609.163C872.361 608.813 874.353 608.455 876.136 608.326C877.173 608.253 877.768 607.298 878.324 606.332C878.852 605.427 879.381 604.497 880.313 604.212C880.78 604.069 881.362 604.07 881.985 604.067C882.538 604.063 883.099 604.068 883.649 603.965C884.159 603.87 884.994 603.066 886.049 602.025C886.703 601.38 887.436 600.649 888.215 599.944C890.783 598.988 893.327 597.97 895.816 596.906C896.577 597.09 897.357 597.448 898.155 598.028C898.728 598.444 899.332 598.989 899.949 599.546C900.79 600.303 901.662 601.083 902.533 601.598C903.213 602.001 903.736 602.008 903.838 601.606C903.886 601.419 903.843 601.147 903.805 600.901C903.762 600.619 903.723 600.368 903.828 600.311C903.905 600.271 904.079 600.383 904.291 600.517C904.63 600.732 905.07 601.008 905.377 600.838C906.518 600.205 907.687 599.296 908.819 598.401C910.079 597.405 911.294 596.428 912.405 595.866C913.65 595.236 914.905 593.574 916.136 591.907C917 590.741 917.85 589.578 918.691 588.757C919.512 587.956 920.711 587.586 921.864 587.23C923.252 586.802 924.569 586.395 925.132 585.244C925.246 585.011 925.038 584.235 924.776 583.267C924.59 582.58 924.378 581.795 924.231 581.036C925.384 580.201 926.473 579.367 927.594 578.468C927.695 578.52 927.798 578.573 927.903 578.627C927.905 578.629 927.907 578.63 927.909 578.632C930.269 579.857 933.494 581.533 934.118 578.619C934.279 577.877 934.013 576.931 933.771 576.08C933.534 575.245 933.32 574.499 933.553 574.129C933.819 573.71 934.554 573.773 935.354 573.84C936.471 573.939 937.769 574.007 938.031 572.806C938.049 572.723 938.067 572.634 938.088 572.543C938.289 571.677 938.561 570.412 938.318 568.479C940.413 566.267 942.422 563.992 944.317 561.716C947.57 557.846 950.641 553.868 953.685 549.814C955.192 547.81 955.411 544.589 954.257 540.737C953.759 538.736 952.703 536.882 951.648 534.819C951.088 533.818 950.292 532.983 949.702 531.921C949.358 531.436 948.98 530.972 948.55 530.553C948.441 530.451 948.328 530.351 948.198 530.274C948.067 530.205 947.918 530.121 947.712 530.243C947.615 530.309 947.48 530.462 947.482 530.778C947.474 531.095 947.717 531.472 947.922 531.645C948.342 531.993 948.494 532.069 948.5 532.236C948.498 532.311 948.456 532.39 948.323 532.455C948.19 532.513 947.954 532.585 947.507 532.452C947.073 532.345 946.398 531.794 946.166 531.127C945.92 530.469 945.973 529.982 945.989 529.678C946.046 529.071 946.062 528.86 946.029 528.638C945.999 528.43 945.938 528.274 945.868 528.127C945.577 527.559 945.177 527.126 944.758 526.711C943.836 525.961 943.04 525.126 942.134 524.442C940.248 523.142 938.55 521.87 936.694 521.084C933.126 519.389 930.088 519.031 928.046 520.088C924.772 521.778 921.494 523.41 918.194 525.098C917.988 525.138 917.782 525.181 917.58 525.229C916.071 525.588 914.176 525.371 912.338 525.099C911.911 525.04 911.483 524.982 911.058 524.931Z" fill="white"/>
<path d="M900.794 630.505C900.436 630.545 899.675 630.541 898.807 630.466C898.585 630.447 898.349 630.422 898.097 630.391C897.835 630.357 897.62 630.332 897.168 630.247C896.351 630.095 895.389 629.879 894.182 629.497C893.285 629.204 890.816 628.42 887.64 626.354C886.396 625.516 874.392 618.039 874.745 601.193C874.955 593.206 879.008 586.589 881.284 583.948C883.398 581.378 885.345 579.798 886.993 578.62C888.786 577.372 889.705 576.905 890.643 576.412C891.569 575.939 892.399 575.575 893.162 575.272C898.367 573.337 900.373 573.413 902.501 573.222C904.634 573.126 906.395 573.26 908.194 573.568C915.219 574.587 922.195 579.89 925.091 584.793C928.148 589.757 928.362 592.951 928.515 594.784C928.59 596.661 928.349 597.357 928.188 597.812C928.179 597.455 928.168 597.115 928.156 596.795C928.154 596.718 928.152 596.641 928.15 596.564C928.114 595.546 928.148 594.677 928.183 593.657C928.266 591.251 928.328 588.128 927.106 582.13C927.235 580.44 927.339 578.721 927.413 577.06C928.179 559.075 927.534 542.105 928.204 525.029C928.252 524.822 928.302 524.611 928.353 524.398C929.327 520.262 930.681 515.257 930.606 511.899C930.504 507.616 930.272 504.644 930.064 502.176C930.89 496.056 932.027 489.995 933.585 484.068C936.606 474.671 934.787 468.108 934.148 464.002C933.308 459.707 932.567 456.309 932.072 452.787C931.491 448.756 931.21 444.718 931.242 440.622C931.271 436.861 931.536 433.041 932 429.213C932.694 427.017 933.515 424.967 934.306 423.045C934.363 422.908 934.419 422.772 934.475 422.635C934.563 422.32 934.539 421.334 934.598 421.012C935.412 418.239 936.14 415.828 936.441 413.763C937.199 408.575 936.67 402.622 936.328 398.161C936.271 397.435 936.218 396.753 936.176 396.124C936.737 392.622 937.346 389.165 937.99 385.698C937.817 385.447 937.637 385.194 937.452 384.936C935.144 381.75 935.508 378.026 936.153 372.244C936.436 369.714 936.772 366.803 936.985 363.324C937.121 361.097 936.245 359.83 935.531 358.791C935.32 358.487 935.124 358.202 934.972 357.92C934.449 356.964 935.247 356.086 936.189 355.069C937.409 353.772 938.884 352.159 938.047 349.763C935.409 341.951 938.319 339.029 940.499 336.868C941.143 336.205 941.724 335.618 942.088 334.996C943.277 332.927 942.835 329.752 941.969 327.151C941.281 325.074 942.738 321.55 944.275 318.176C944.543 317.561 944.722 316.878 944.846 315.877C944.904 315.427 944.954 314.82 944.977 314.109C944.996 313.489 945.015 312.426 944.876 310.995L944.941 311.836C944.973 312.469 944.962 312.784 944.957 312.988C944.934 313.531 944.952 313.176 944.99 312.97C945.009 312.844 945.039 312.658 945.071 312.483C945.102 312.32 945.14 312.134 945.185 311.927C945.365 311.106 945.637 310.174 946.048 309.203C948.148 304.24 949.301 301.377 950.186 299.18C950.444 298.533 950.675 297.963 950.918 297.364C951.681 295.486 952.452 293.131 953.236 290.722C954.174 287.841 955.125 284.908 956.093 282.701C956.511 276.628 956.782 270.491 956.961 264.101C957.047 260.811 955.284 257.251 951.89 254.259C948.518 251.329 943.677 248.874 938.733 249.401C933.809 249.833 929.081 250.414 925.275 251.818C921.478 253.237 918.937 255.567 918.123 258.394C916.488 264.093 914.691 270.001 913.038 275.925C911.021 283.162 909.18 290.471 907.895 298.101C907.572 300.034 907.279 301.902 906.991 303.972C906.85 304.992 906.716 306.015 906.578 307.226C906.522 307.739 906.437 308.521 906.38 309.204C906.326 310.254 906.157 310.422 906.26 313.87C906.302 314.07 906.287 314.69 906.338 314.888C906.254 313.871 906.295 313.59 906.303 313.524C906.317 313.444 906.328 313.554 906.331 313.704C906.336 314.058 906.32 314.57 906.29 315.162C906.272 315.553 906.239 316.071 906.213 316.502C904.545 320.25 902.815 324.471 901.998 327.487C901.316 329.999 901.697 331.96 902.024 333.641C902.244 334.836 902.45 335.814 902.259 336.816C902.157 337.35 901.98 338.089 901.774 338.939C900.918 342.498 899.489 348.564 899.991 354.35C900.209 356.94 900.902 359.967 901.583 362.827C902.549 366.971 903.491 370.781 902.904 372.606C901.868 375.832 902.124 379.639 902.374 383.026C902.614 386.231 902.844 389.071 901.907 390.572C900.787 392.389 901.071 394.046 901.506 396.476C901.808 398.182 902.182 400.232 902.228 403.032C902.283 406.242 902.864 408.565 903.363 410.502C904.068 413.242 904.608 415.303 903.369 418.301C903.127 418.888 902.901 419.483 902.693 420.08L902.794 418.749C901.545 421.594 900.765 424.452 900.891 426.926C900.962 428.273 900.804 429.814 900.663 431.406C900.475 433.524 900.317 435.791 900.725 437.84C901.061 439.57 902.012 440.937 902.865 442.191C903.131 442.574 903.387 442.937 903.612 443.283C903.615 444.637 903.627 445.935 903.649 447.302C903.503 447.524 903.341 447.757 903.174 448C902.339 449.229 901.329 450.772 900.922 452.664C900.277 455.65 901.074 458.181 901.944 460.702C902.621 462.669 903.356 464.667 903.455 466.8C903.521 468.244 903.3 469.816 902.965 470.885C902.719 471.682 902.407 472.156 902.225 472.253C902.04 472.362 902.02 472.131 902.248 472.028C902.311 471.998 902.438 471.994 902.601 472.015C902.696 472.493 902.907 472.986 903.119 473.475C903.121 473.479 903.124 473.482 903.126 473.486C903.149 473.54 903.171 473.593 903.194 473.646C901.104 477.835 899.107 482.096 897.222 486.384C896.954 486.726 896.688 487.072 896.426 487.417C895.147 489.1 893.932 490.747 892.614 491.697C891.186 492.716 889.655 495.892 888.142 499.261C887.144 501.484 886.155 503.767 885.13 505.615C884.531 506.694 884.91 507.904 885.306 509.159C885.675 510.328 886.064 511.514 885.69 512.649C885.504 513.215 885.13 513.803 884.734 514.43C884.385 514.983 884.017 515.567 883.744 516.198C883.491 516.782 883.58 518.208 883.711 520.03C883.792 521.156 883.893 522.411 883.936 523.745C883.026 527.079 882.188 530.406 881.42 533.775C880.792 534.415 880.016 534.941 879.058 535.319C878.37 535.589 877.562 535.803 876.736 536.02C875.613 536.316 874.451 536.626 873.497 537.128C872.752 537.521 872.414 538.045 872.661 538.448C872.776 538.635 873.015 538.795 873.23 538.94C873.477 539.106 873.697 539.252 873.674 539.405C873.656 539.514 873.459 539.608 873.219 539.725C872.837 539.911 872.343 540.154 872.281 540.594C872.048 542.231 872.015 544.102 871.995 545.938C871.975 547.947 871.966 549.973 871.706 551.5C871.41 553.264 871.918 555.786 872.445 558.319C872.814 560.045 873.184 561.852 873.299 563.299C873.407 564.784 872.946 566.212 872.498 567.66C871.962 569.375 871.45 571.008 871.992 572.434C872.102 572.721 872.836 573.1 873.755 573.576C874.405 573.923 875.149 574.32 875.832 574.759C875.753 576.508 875.708 578.283 875.69 579.991C875.585 580.049 875.479 580.108 875.37 580.167C875.368 580.168 875.366 580.168 875.363 580.169C872.913 581.492 869.569 583.248 871.382 585.915C871.843 586.593 872.736 587.009 873.537 587.441C874.323 587.849 875.027 588.213 875.151 588.673C875.293 589.181 874.756 589.782 874.173 590.366C873.476 591.039 872.699 591.821 872.928 592.518C872.938 592.942 872.984 593.371 873.071 593.802C873.111 594.002 873.157 594.218 873.205 594.442C873.679 596.596 874.361 600.127 877.166 604.601C878.319 611.054 887.651 624.815 902.404 624.48C904.458 624.423 906.15 624.476 910.126 623.259C911.163 622.915 912.649 622.358 914.387 621.359C915.385 620.785 916.945 619.79 918.574 618.25C919.428 617.432 920.206 616.629 921.264 615.191C922.524 613.457 923.824 611.137 924.644 608.189C928.74 594.178 916.559 584.282 915.776 584.281C914.351 583.332 913.153 582.748 912.125 582.309C911.541 582.063 911.314 581.983 910.997 581.868C910.698 581.761 910.414 581.666 910.142 581.581C909.087 581.248 908.078 581.03 907.489 580.925C906.928 580.824 906.426 580.755 905.962 580.703C904.948 580.593 904.483 580.586 903.893 580.57C903.613 580.565 903.344 580.565 903.084 580.568C902.873 580.572 902.676 580.579 902.479 580.587C902.086 580.605 901.709 580.629 901.345 580.66C898.82 580.907 897.401 581.284 895.984 581.65C895.716 581.722 895.445 581.796 895.171 581.873C893.655 583.116 886.695 584.285 881.383 585.14C878.553 585.587 875.71 587.728 873.449 591.249C871.234 594.777 869.556 599.363 869.5 604.212C868.928 609.037 870.001 613.802 871.986 617.565C874.004 621.325 876.957 623.745 880.185 624.377C885.526 625.372 890.616 626.376 897.494 626.669C897.876 626.739 898.241 626.805 898.652 626.857C899.996 627.034 901.455 627.317 903.295 627.525C903.796 628.073 904.251 628.802 903.549 629.607C903.375 629.775 903.179 629.945 902.756 630.107C902.55 630.188 902.337 630.266 902.037 630.337C901.692 630.406 901.286 630.466 900.794 630.505Z" fill="white"/>
<path d="M911.058 1074.93C907.82 1074.56 905.047 1077.96 903.465 1079.83C903.436 1079.86 903.406 1079.9 903.376 1079.93C902.998 1080.38 902.587 1080.74 902.121 1081.14C900.999 1082.1 899.461 1083.43 896.961 1087.12C895.928 1087.81 894.951 1088.49 893.957 1089.21C883.297 1096.91 873.534 1105.61 863.688 1113.27C863.545 1113.33 863.4 1113.39 863.255 1113.45C860.411 1114.64 856.964 1115.9 855.265 1117.52C853.04 1119.61 851.656 1121.16 850.485 1122.46C846.479 1124.84 842.479 1126.59 839.552 1127.32C834.164 1127.96 828.691 1128.5 823.07 1129.01C819.332 1129.35 815.524 1129.68 811.674 1130.04C808.129 1130.36 804.549 1130.73 800.989 1131.16C798.849 1130.99 796.779 1130.76 794.868 1130.57C792.175 1130.3 789.778 1130.12 787.887 1130.33C786.317 1130.51 784.75 1130.87 783.203 1131.35C780.373 1132.23 777.715 1133.48 775.534 1134.52C774.994 1134.77 774.486 1135.01 774.015 1135.23C771.199 1135.69 768.342 1136.15 765.531 1136.61C765.402 1136.84 765.275 1137.09 765.146 1137.34C763.542 1140.5 760.695 1141.3 756.252 1142.61C754.305 1143.19 752.072 1143.85 749.504 1144.85C747.843 1145.5 747.291 1146.74 746.84 1147.76C746.708 1148.06 746.584 1148.34 746.444 1148.58C745.969 1149.39 745.035 1148.97 743.952 1148.46C742.537 1147.81 740.879 1147.01 739.49 1148.65C735.129 1153.85 731.984 1152.27 729.61 1151.07C728.91 1150.72 728.278 1150.4 727.704 1150.3C725.858 1149.95 723.846 1151.51 722.514 1153.19C721.489 1154.52 718.448 1154.46 716.106 1153.9C715.197 1153.7 714.156 1154 712.961 1154.34C711.727 1154.69 710.229 1155.11 708.605 1155.03C704.382 1154.86 702.28 1154.72 700.64 1154.6C700.153 1154.57 699.709 1154.54 699.274 1154.5C697.926 1154.37 696.258 1154.36 694.786 1154.26C692.933 1154.17 691.301 1153.94 690.32 1153.44C689.085 1153.87 688.175 1154.17 688.221 1154.52C688.206 1154.94 689.833 1155.24 692.67 1157.92C694.064 1159.28 694.909 1161.56 694.518 1163.23C694.176 1164.95 692.844 1166.02 691.084 1166.51C687.501 1167.45 682.659 1166.49 677.736 1166.5C672.834 1166.51 667.878 1167.38 664.758 1171.11C661.527 1174.52 661.822 1183.05 667.864 1188.35C680.278 1198 688.429 1196.26 694.849 1196.79C702.681 1196.74 709.234 1195.66 715.334 1194.07C719.628 1192.94 723.637 1191.65 727.645 1190.21C728.045 1190.07 728.446 1189.92 728.848 1189.78C732.577 1189.91 736.211 1189.93 738.644 1189.57C740.631 1189.29 741.869 1188.21 742.858 1187.31C743.548 1186.69 744.162 1186.14 744.906 1185.96C745.306 1185.86 745.864 1185.76 746.539 1185.64C749.245 1185.17 753.856 1184.35 757.502 1181.95C759.097 1180.9 760.886 1179.25 762.528 1177.7C764.912 1175.47 767.145 1173.41 768.582 1173.4C771.125 1173.38 773.57 1172.02 775.785 1170.82C777.869 1169.68 779.71 1168.69 781.051 1169.17C782.643 1169.75 783.656 1169.05 785.186 1168.01C786.251 1167.29 787.547 1166.42 789.446 1165.71C790.33 1165.38 791.09 1165.01 791.763 1164.63C792.725 1164.07 793.483 1163.48 794.182 1162.95C795.822 1161.71 797.088 1160.78 799.372 1161.47C801.909 1162.23 804.361 1162.61 806.135 1161.93C806.944 1161.62 807.912 1161.52 808.917 1161.43C810.25 1161.31 811.645 1161.21 812.882 1160.62C813.901 1160.14 814.695 1159.1 815.419 1158.19C815.645 1157.91 815.862 1157.64 816.076 1157.4C816.948 1157.34 817.822 1157.3 818.701 1157.27C818.852 1157.42 819.011 1157.58 819.177 1157.74C820.014 1158.58 821.025 1159.61 822.23 1160.1C824.142 1160.88 825.779 1160.3 827.552 1159.69C828.927 1159.22 830.381 1158.74 832.067 1158.9C833.211 1159 834.524 1159.39 835.837 1159.78C837.044 1160.15 838.247 1160.51 839.323 1160.65C840.251 1160.73 841.103 1160.71 841.822 1160.54C842.542 1160.38 843.125 1159.74 843.676 1159.09C843.679 1159.09 843.681 1159.08 843.683 1159.08C843.721 1159.04 843.759 1158.99 843.796 1158.95C848.253 1159.06 852.542 1158.71 856.59 1158.17C856.968 1158.23 857.351 1158.28 857.732 1158.33C859.607 1158.57 861.397 1158.75 862.734 1159.37C864.194 1160.05 867.226 1159.67 870.298 1159.16C872.361 1158.81 874.353 1158.45 876.136 1158.33C877.173 1158.25 877.768 1157.3 878.324 1156.33C878.852 1155.43 879.381 1154.5 880.313 1154.21C880.78 1154.07 881.362 1154.07 881.985 1154.07C882.538 1154.06 883.099 1154.07 883.649 1153.97C884.159 1153.87 884.994 1153.07 886.049 1152.02C886.703 1151.38 887.436 1150.65 888.215 1149.94C890.783 1148.99 893.327 1147.97 895.816 1146.91C896.577 1147.09 897.357 1147.45 898.155 1148.03C898.728 1148.44 899.332 1148.99 899.949 1149.55C900.79 1150.3 901.662 1151.08 902.533 1151.6C903.213 1152 903.736 1152.01 903.838 1151.61C903.886 1151.42 903.843 1151.15 903.805 1150.9C903.762 1150.62 903.723 1150.37 903.828 1150.31C903.905 1150.27 904.079 1150.38 904.291 1150.52C904.63 1150.73 905.07 1151.01 905.377 1150.84C906.518 1150.2 907.687 1149.3 908.819 1148.4C910.079 1147.4 911.294 1146.43 912.405 1145.87C913.65 1145.24 914.905 1143.57 916.136 1141.91C917 1140.74 917.85 1139.58 918.691 1138.76C919.512 1137.96 920.711 1137.59 921.864 1137.23C923.252 1136.8 924.569 1136.4 925.132 1135.24C925.246 1135.01 925.038 1134.24 924.776 1133.27C924.59 1132.58 924.378 1131.8 924.231 1131.04C925.384 1130.2 926.473 1129.37 927.594 1128.47C927.695 1128.52 927.798 1128.57 927.903 1128.63C927.905 1128.63 927.907 1128.63 927.909 1128.63C930.269 1129.86 933.494 1131.53 934.118 1128.62C934.279 1127.88 934.013 1126.93 933.771 1126.08C933.534 1125.24 933.32 1124.5 933.553 1124.13C933.819 1123.71 934.554 1123.77 935.354 1123.84C936.471 1123.94 937.769 1124.01 938.031 1122.81C938.049 1122.72 938.067 1122.63 938.088 1122.54C938.289 1121.68 938.561 1120.41 938.318 1118.48C940.413 1116.27 942.422 1113.99 944.317 1111.72C947.57 1107.85 950.641 1103.87 953.685 1099.81C955.192 1097.81 955.411 1094.59 954.257 1090.74C953.759 1088.74 952.703 1086.88 951.648 1084.82C951.088 1083.82 950.292 1082.98 949.702 1081.92C949.358 1081.44 948.98 1080.97 948.55 1080.55C948.441 1080.45 948.328 1080.35 948.198 1080.27C948.067 1080.2 947.918 1080.12 947.712 1080.24C947.615 1080.31 947.48 1080.46 947.482 1080.78C947.474 1081.09 947.717 1081.47 947.922 1081.64C948.342 1081.99 948.494 1082.07 948.5 1082.24C948.498 1082.31 948.456 1082.39 948.323 1082.46C948.19 1082.51 947.954 1082.58 947.507 1082.45C947.073 1082.34 946.398 1081.79 946.166 1081.13C945.92 1080.47 945.973 1079.98 945.989 1079.68C946.046 1079.07 946.062 1078.86 946.029 1078.64C945.999 1078.43 945.938 1078.27 945.868 1078.13C945.577 1077.56 945.177 1077.13 944.758 1076.71C943.836 1075.96 943.04 1075.13 942.134 1074.44C940.248 1073.14 938.55 1071.87 936.694 1071.08C933.126 1069.39 930.088 1069.03 928.046 1070.09C924.772 1071.78 921.494 1073.41 918.194 1075.1C917.988 1075.14 917.782 1075.18 917.58 1075.23C916.071 1075.59 914.176 1075.37 912.338 1075.1C911.911 1075.04 911.483 1074.98 911.058 1074.93Z" fill="white"/>
<path d="M900.794 1180.51C900.436 1180.55 899.675 1180.54 898.807 1180.47C898.585 1180.45 898.349 1180.42 898.097 1180.39C897.835 1180.36 897.62 1180.33 897.168 1180.25C896.351 1180.1 895.389 1179.88 894.182 1179.5C893.285 1179.2 890.816 1178.42 887.64 1176.35C886.396 1175.52 874.392 1168.04 874.745 1151.19C874.955 1143.21 879.008 1136.59 881.284 1133.95C883.398 1131.38 885.345 1129.8 886.993 1128.62C888.786 1127.37 889.705 1126.9 890.643 1126.41C891.569 1125.94 892.399 1125.58 893.162 1125.27C898.367 1123.34 900.373 1123.41 902.501 1123.22C904.634 1123.13 906.395 1123.26 908.194 1123.57C915.219 1124.59 922.195 1129.89 925.091 1134.79C928.148 1139.76 928.362 1142.95 928.515 1144.78C928.59 1146.66 928.349 1147.36 928.188 1147.81C928.179 1147.45 928.168 1147.11 928.156 1146.79C928.154 1146.72 928.152 1146.64 928.15 1146.56C928.114 1145.55 928.148 1144.68 928.183 1143.66C928.266 1141.25 928.328 1138.13 927.106 1132.13C927.235 1130.44 927.339 1128.72 927.413 1127.06C928.179 1109.07 927.534 1092.1 928.204 1075.03C928.252 1074.82 928.302 1074.61 928.353 1074.4C929.327 1070.26 930.681 1065.26 930.606 1061.9C930.504 1057.62 930.272 1054.64 930.064 1052.18C930.89 1046.06 932.027 1039.99 933.585 1034.07C936.606 1024.67 934.787 1018.11 934.148 1014C933.308 1009.71 932.567 1006.31 932.072 1002.79C931.491 998.756 931.21 994.718 931.242 990.622C931.271 986.861 931.536 983.041 932 979.213C932.694 977.017 933.515 974.967 934.306 973.045C934.363 972.908 934.419 972.772 934.475 972.635C934.563 972.32 934.539 971.334 934.598 971.012C935.412 968.239 936.14 965.828 936.441 963.763C937.199 958.575 936.67 952.622 936.328 948.161C936.271 947.435 936.218 946.753 936.176 946.124C936.737 942.622 937.346 939.165 937.99 935.698C937.817 935.447 937.637 935.194 937.452 934.936C935.144 931.75 935.508 928.026 936.153 922.244C936.436 919.714 936.772 916.803 936.985 913.324C937.121 911.097 936.245 909.83 935.531 908.791C935.32 908.487 935.124 908.202 934.972 907.92C934.449 906.964 935.247 906.086 936.189 905.069C937.409 903.772 938.884 902.159 938.047 899.763C935.409 891.951 938.319 889.029 940.499 886.868C941.143 886.205 941.724 885.618 942.088 884.996C943.277 882.927 942.835 879.752 941.969 877.151C941.281 875.074 942.738 871.55 944.275 868.176C944.543 867.561 944.722 866.878 944.846 865.877C944.904 865.427 944.954 864.82 944.977 864.109C944.996 863.489 945.015 862.426 944.876 860.995L944.941 861.836C944.973 862.469 944.962 862.784 944.957 862.988C944.934 863.531 944.952 863.176 944.99 862.97C945.009 862.844 945.039 862.658 945.071 862.483C945.102 862.32 945.14 862.134 945.185 861.927C945.365 861.106 945.637 860.174 946.048 859.203C948.148 854.24 949.301 851.377 950.186 849.18C950.444 848.533 950.675 847.963 950.918 847.364C951.681 845.486 952.452 843.131 953.236 840.722C954.174 837.841 955.125 834.908 956.093 832.701C956.511 826.628 956.782 820.491 956.961 814.101C957.047 810.811 955.284 807.251 951.89 804.259C948.518 801.329 943.677 798.874 938.733 799.401C933.809 799.833 929.081 800.414 925.275 801.818C921.478 803.237 918.937 805.567 918.123 808.394C916.488 814.093 914.691 820.001 913.038 825.925C911.021 833.162 909.18 840.471 907.895 848.101C907.572 850.034 907.279 851.902 906.991 853.972C906.85 854.992 906.716 856.015 906.578 857.226C906.522 857.739 906.437 858.521 906.38 859.204C906.326 860.254 906.157 860.422 906.26 863.87C906.302 864.07 906.287 864.69 906.338 864.888C906.254 863.871 906.295 863.59 906.303 863.524C906.317 863.444 906.328 863.554 906.331 863.704C906.336 864.058 906.32 864.57 906.29 865.162C906.272 865.553 906.239 866.071 906.213 866.502C904.545 870.25 902.815 874.471 901.998 877.487C901.316 879.999 901.697 881.96 902.024 883.641C902.244 884.836 902.45 885.814 902.259 886.816C902.157 887.35 901.98 888.089 901.774 888.939C900.918 892.498 899.489 898.564 899.991 904.35C900.209 906.94 900.902 909.967 901.583 912.827C902.549 916.971 903.491 920.781 902.904 922.606C901.868 925.832 902.124 929.639 902.374 933.026C902.614 936.231 902.844 939.071 901.907 940.572C900.787 942.389 901.071 944.046 901.506 946.476C901.808 948.182 902.182 950.232 902.228 953.032C902.283 956.242 902.864 958.565 903.363 960.502C904.068 963.242 904.608 965.303 903.369 968.301C903.127 968.888 902.901 969.483 902.693 970.08L902.794 968.749C901.545 971.594 900.765 974.452 900.891 976.926C900.962 978.273 900.804 979.814 900.663 981.406C900.475 983.524 900.317 985.791 900.725 987.84C901.061 989.57 902.012 990.937 902.865 992.191C903.131 992.574 903.387 992.937 903.612 993.283C903.615 994.637 903.627 995.935 903.649 997.302C903.503 997.524 903.341 997.757 903.174 998C902.339 999.229 901.329 1000.77 900.922 1002.66C900.277 1005.65 901.074 1008.18 901.944 1010.7C902.621 1012.67 903.356 1014.67 903.455 1016.8C903.521 1018.24 903.3 1019.82 902.965 1020.89C902.719 1021.68 902.407 1022.16 902.225 1022.25C902.04 1022.36 902.02 1022.13 902.248 1022.03C902.311 1022 902.438 1021.99 902.601 1022.01C902.696 1022.49 902.907 1022.99 903.119 1023.47C903.121 1023.48 903.124 1023.48 903.126 1023.49C903.149 1023.54 903.171 1023.59 903.194 1023.65C901.104 1027.84 899.107 1032.1 897.222 1036.38C896.954 1036.73 896.688 1037.07 896.426 1037.42C895.147 1039.1 893.932 1040.75 892.614 1041.7C891.186 1042.72 889.655 1045.89 888.142 1049.26C887.144 1051.48 886.155 1053.77 885.13 1055.62C884.531 1056.69 884.91 1057.9 885.306 1059.16C885.675 1060.33 886.064 1061.51 885.69 1062.65C885.504 1063.21 885.13 1063.8 884.734 1064.43C884.385 1064.98 884.017 1065.57 883.744 1066.2C883.491 1066.78 883.58 1068.21 883.711 1070.03C883.792 1071.16 883.893 1072.41 883.936 1073.74C883.026 1077.08 882.188 1080.41 881.42 1083.78C880.792 1084.41 880.016 1084.94 879.058 1085.32C878.37 1085.59 877.562 1085.8 876.736 1086.02C875.613 1086.32 874.451 1086.63 873.497 1087.13C872.752 1087.52 872.414 1088.05 872.661 1088.45C872.776 1088.64 873.015 1088.8 873.23 1088.94C873.477 1089.11 873.697 1089.25 873.674 1089.4C873.656 1089.51 873.459 1089.61 873.219 1089.72C872.837 1089.91 872.343 1090.15 872.281 1090.59C872.048 1092.23 872.015 1094.1 871.995 1095.94C871.975 1097.95 871.966 1099.97 871.706 1101.5C871.41 1103.26 871.918 1105.79 872.445 1108.32C872.814 1110.05 873.184 1111.85 873.299 1113.3C873.407 1114.78 872.946 1116.21 872.498 1117.66C871.962 1119.37 871.45 1121.01 871.992 1122.43C872.102 1122.72 872.836 1123.1 873.755 1123.58C874.405 1123.92 875.149 1124.32 875.832 1124.76C875.753 1126.51 875.708 1128.28 875.69 1129.99C875.585 1130.05 875.479 1130.11 875.37 1130.17C875.368 1130.17 875.366 1130.17 875.363 1130.17C872.913 1131.49 869.569 1133.25 871.382 1135.92C871.843 1136.59 872.736 1137.01 873.537 1137.44C874.323 1137.85 875.027 1138.21 875.151 1138.67C875.293 1139.18 874.756 1139.78 874.173 1140.37C873.476 1141.04 872.699 1141.82 872.928 1142.52C872.938 1142.94 872.984 1143.37 873.071 1143.8C873.111 1144 873.157 1144.22 873.205 1144.44C873.679 1146.6 874.361 1150.13 877.166 1154.6C878.319 1161.05 887.651 1174.82 902.404 1174.48C904.458 1174.42 906.15 1174.48 910.126 1173.26C911.163 1172.91 912.649 1172.36 914.387 1171.36C915.385 1170.79 916.945 1169.79 918.574 1168.25C919.428 1167.43 920.206 1166.63 921.264 1165.19C922.524 1163.46 923.824 1161.14 924.644 1158.19C928.74 1144.18 916.559 1134.28 915.776 1134.28C914.351 1133.33 913.153 1132.75 912.125 1132.31C911.541 1132.06 911.314 1131.98 910.997 1131.87C910.698 1131.76 910.414 1131.67 910.142 1131.58C909.087 1131.25 908.078 1131.03 907.489 1130.93C906.928 1130.82 906.426 1130.75 905.962 1130.7C904.948 1130.59 904.483 1130.59 903.893 1130.57C903.613 1130.57 903.344 1130.56 903.084 1130.57C902.873 1130.57 902.676 1130.58 902.479 1130.59C902.086 1130.6 901.709 1130.63 901.345 1130.66C898.82 1130.91 897.401 1131.28 895.984 1131.65C895.716 1131.72 895.445 1131.8 895.171 1131.87C893.655 1133.12 886.695 1134.29 881.383 1135.14C878.553 1135.59 875.71 1137.73 873.449 1141.25C871.234 1144.78 869.556 1149.36 869.5 1154.21C868.928 1159.04 870.001 1163.8 871.986 1167.57C874.004 1171.33 876.957 1173.75 880.185 1174.38C885.526 1175.37 890.616 1176.38 897.494 1176.67C897.876 1176.74 898.241 1176.8 898.652 1176.86C899.996 1177.03 901.455 1177.32 903.295 1177.53C903.796 1178.07 904.251 1178.8 903.549 1179.61C903.375 1179.77 903.179 1179.94 902.756 1180.11C902.55 1180.19 902.337 1180.27 902.037 1180.34C901.692 1180.41 901.286 1180.47 900.794 1180.51Z" fill="white"/>
<rect x="478" width="43" height="1400" fill="#A6D9F9"/>
<rect x="917" width="83" height="1400" fill="#A6D9F9"/>
<rect x="-1" width="83" height="1400" fill="#A6D9F9"/>
<rect x="999" y="603" width="42" height="1000" transform="rotate(90 999 603)" fill="#A6D9F9"/>
<rect x="1000" width="108" height="1000" transform="rotate(90 1000 0)" fill="#A6D9F9"/>
<rect x="998" y="1188" width="212" height="1000" transform="rotate(90 998 1188)" fill="#A6D9F9"/>
<rect x="998" y="1358" width="42" height="1000" transform="rotate(90 998 1358)" fill="#A6D9F9"/>
</g>
<rect width="1000" height="1389" fill="url(#pattern9_2376_800)"/>
<rect x="244" y="1122" width="512" height="198" fill="url(#pattern10_2376_800)"/>
<g filter="url(#filter0_d_2376_800)">
<path d="M293.307 77.7407H282.635C282.727 75.7167 282.773 64.9527 282.773 63.7567V58.7887C282.773 58.0067 282.635 46.1847 282.543 45.0807H293.353C293.261 45.9087 293.123 54.7867 293.123 55.6147V57.4547L305.083 56.5807V54.6487C305.083 53.8667 304.991 46.0927 304.899 45.0807H315.617C315.571 46.1847 315.433 59.0647 315.433 60.1687V64.7687C315.433 65.3667 315.525 76.8667 315.617 77.7407H304.899C304.945 76.1767 305.083 68.7247 305.083 67.8507V64.3547L293.123 65.2287V66.8847C293.123 68.9547 293.261 76.6827 293.307 77.7407ZM328.211 79.2127L319.471 74.3367C320.851 71.9907 333.593 50.4167 338.055 43.3787H338.515C344.035 51.7047 356.409 71.1627 358.341 73.7847L349.233 79.1667C347.899 76.9127 345.553 72.8187 345.093 72.0367L331.247 72.8187C330.879 73.4627 329.223 77.0507 328.211 79.2127ZM334.191 66.0107L341.965 65.5967C340.677 62.9747 338.929 59.7087 338.101 57.8227C336.997 60.0307 335.387 63.4347 334.191 66.0107ZM372.497 77.7407H362.239C362.285 75.7627 362.377 64.6767 362.377 61.4107V56.3507C362.377 55.2927 362.239 45.7707 362.239 45.0807C371.025 45.0807 376.637 45.3107 380.455 46.2307C385.055 47.3807 389.103 50.0947 389.103 55.2927C389.103 61.2727 383.537 67.7587 372.405 69.5987V70.8407C372.405 71.7607 372.405 76.7747 372.497 77.7407ZM372.405 51.5207V63.1127C375.073 62.6987 378.661 60.3987 378.661 56.5807C378.661 54.0047 377.327 51.8887 372.405 51.5207ZM404.459 77.7407H394.201C394.247 75.7627 394.339 64.6767 394.339 61.4107V56.3507C394.339 55.2927 394.201 45.7707 394.201 45.0807C402.987 45.0807 408.599 45.3107 412.417 46.2307C417.017 47.3807 421.065 50.0947 421.065 55.2927C421.065 61.2727 415.499 67.7587 404.367 69.5987V70.8407C404.367 71.7607 404.367 76.7747 404.459 77.7407ZM404.367 51.5207V63.1127C407.035 62.6987 410.623 60.3987 410.623 56.5807C410.623 54.0047 409.289 51.8887 404.367 51.5207ZM444.288 77.7407H433.478C433.524 76.6827 433.708 71.8067 433.708 71.2087V69.1847C433.708 63.2507 431.132 58.4667 427.728 56.2127C425.888 54.9707 424.002 54.2347 422.53 53.8207L426.072 44.3447C429.154 45.3567 432.374 46.8287 434.72 49.1747C436.422 50.8767 438.078 53.2687 439.182 56.8567H439.55C440.562 53.7747 442.402 51.3367 444.61 49.2207C446.818 47.1047 449.716 45.3567 453.258 44.3447L456.156 53.8207C454.132 54.2347 451.326 55.4767 449.21 57.2707C446.45 59.5247 444.058 63.8487 444.058 69.0927V72.0827C444.058 72.7267 444.196 76.8207 444.288 77.7407ZM482.613 77.7407H471.941C472.033 75.7167 472.079 64.9527 472.079 63.7567V58.7887C472.079 58.0067 471.941 46.1847 471.849 45.0807H482.659C482.567 45.9087 482.429 54.7867 482.429 55.6147V57.4547L494.389 56.5807V54.6487C494.389 53.8667 494.297 46.0927 494.205 45.0807H504.923C504.877 46.1847 504.739 59.0647 504.739 60.1687V64.7687C504.739 65.3667 504.831 76.8667 504.923 77.7407H494.205C494.251 76.1767 494.389 68.7247 494.389 67.8507V64.3547L482.429 65.2287V66.8847C482.429 68.9547 482.567 76.6827 482.613 77.7407ZM528.149 78.4767C515.867 78.4307 510.393 70.1047 510.393 62.7447C510.393 53.8667 516.833 44.3447 530.403 44.3447C541.351 44.3447 548.205 50.4167 548.205 60.5367C548.205 67.4827 543.559 78.4767 528.149 78.4767ZM528.655 71.3467C533.623 71.3467 536.889 67.7127 536.935 60.8587C536.981 54.9247 534.221 51.4747 529.805 51.4747C524.561 51.4747 521.617 56.4427 521.617 62.0547C521.617 68.2187 524.883 71.3467 528.655 71.3467ZM553.7 45.0807H564.464C564.418 46.1387 564.234 55.6147 564.234 61.4107V69.8287C565.338 69.8287 570.766 69.8287 574.446 69.6447L574.492 78.2007C573.388 78.2007 557.426 77.7407 553.746 77.7407C553.884 75.3027 553.884 65.4587 553.884 64.3547V58.2367C553.884 57.5007 553.792 45.9547 553.7 45.0807ZM590.222 58.8807V63.8487C590.222 68.4487 590.36 76.6827 590.406 77.7407H579.734C579.826 75.7167 579.872 64.9527 579.872 63.7567V58.7887C579.872 58.0067 579.734 46.1847 579.734 45.0807H590.406C590.36 45.9087 590.222 53.3607 590.222 58.8807ZM599.257 63.2047V57.5007C599.257 56.5347 599.211 46.3687 599.027 45.0807C607.491 45.0807 612.413 45.3107 616.691 45.9087C628.743 47.5647 631.043 53.8207 631.043 57.5467C631.043 72.0367 613.839 77.9707 598.981 77.9707C599.165 75.8547 599.257 64.4467 599.257 63.2047ZM609.377 52.4407V69.5987C613.885 68.8627 620.095 65.5967 620.095 59.1567C620.095 53.7287 614.575 52.4407 609.377 52.4407ZM638.226 79.2127L629.486 74.3367C630.866 71.9907 643.608 50.4167 648.07 43.3787H648.53C654.05 51.7047 666.424 71.1627 668.356 73.7847L659.248 79.1667C657.914 76.9127 655.568 72.8187 655.108 72.0367L641.262 72.8187C640.894 73.4627 639.238 77.0507 638.226 79.2127ZM644.206 66.0107L651.98 65.5967C650.692 62.9747 648.944 59.7087 648.116 57.8227C647.012 60.0307 645.402 63.4347 644.206 66.0107ZM685.795 77.7407H674.985C675.031 76.6827 675.215 71.8067 675.215 71.2087V69.1847C675.215 63.2507 672.639 58.4667 669.235 56.2127C667.395 54.9707 665.509 54.2347 664.037 53.8207L667.579 44.3447C670.661 45.3567 673.881 46.8287 676.227 49.1747C677.929 50.8767 679.585 53.2687 680.689 56.8567H681.057C682.069 53.7747 683.909 51.3367 686.117 49.2207C688.325 47.1047 691.223 45.3567 694.765 44.3447L697.663 53.8207C695.639 54.2347 692.833 55.4767 690.717 57.2707C687.957 59.5247 685.565 63.8487 685.565 69.0927V72.0827C685.565 72.7267 685.703 76.8207 685.795 77.7407ZM702.317 78.5687L701.075 70.7027C705.537 70.8407 710.413 69.5987 710.413 67.4367C710.413 66.5167 709.631 65.9647 705.905 63.8487C703.007 62.1927 699.649 59.8927 699.649 56.0287C699.649 50.8767 706.503 45.2647 718.141 44.2527L719.383 51.9347C713.633 51.9347 710.735 52.9007 710.735 54.7867C710.735 55.8907 712.207 56.5807 715.197 58.0527C717.635 59.2487 721.591 61.3187 721.591 65.4587C721.591 70.5187 716.301 76.9587 702.317 78.5687Z" fill="#BF2626"/>
</g>
<path d="M253.385 1292.64L249.205 1290.31C249.865 1289.19 255.959 1278.87 258.093 1275.5H258.313C260.953 1279.48 266.871 1288.79 267.795 1290.04L263.439 1292.62C262.801 1291.54 261.679 1289.58 261.459 1289.21L254.837 1289.58C254.661 1289.89 253.869 1291.61 253.385 1292.64ZM256.245 1286.33L259.963 1286.13C259.347 1284.87 258.511 1283.31 258.115 1282.41C257.587 1283.47 256.817 1285.09 256.245 1286.33ZM279.603 1291.94H274.697C274.785 1290.77 274.785 1286.06 274.785 1285.53V1282.61C274.785 1282.26 274.741 1276.95 274.697 1276.32C276.501 1276.32 282.023 1276.07 284.333 1275.99L284.421 1279.62L279.581 1279.73V1283.11C280.065 1283.11 281.539 1282.98 284.003 1282.92L284.069 1286.39L279.581 1286.35V1288.22C279.581 1288.57 279.603 1291.63 279.603 1291.94ZM288.781 1292.64L284.601 1290.31C285.261 1289.19 291.355 1278.87 293.489 1275.5H293.709C296.349 1279.48 302.267 1288.79 303.191 1290.04L298.835 1292.62C298.197 1291.54 297.075 1289.58 296.855 1289.21L290.233 1289.58C290.057 1289.89 289.265 1291.61 288.781 1292.64ZM291.641 1286.33L295.359 1286.13C294.743 1284.87 293.907 1283.31 293.511 1282.41C292.983 1283.47 292.213 1285.09 291.641 1286.33ZM307.299 1292.62L302.965 1291.01C303.339 1290.13 307.783 1278.63 309.059 1275.83H309.279C310.621 1278.01 313.877 1283.4 314.559 1284.52C315.417 1283.22 318.519 1278.08 319.685 1276.18H319.905C321.423 1279.44 325.845 1289.43 326.439 1290.64L321.995 1292.62C321.291 1290.86 319.201 1285.27 318.959 1284.68C318.695 1285.07 315.879 1289.41 314.229 1291.72H314.009C312.315 1289.16 310.005 1285.42 309.653 1284.76C309.279 1285.91 307.695 1291.58 307.299 1292.62ZM333.565 1282.92V1285.29C333.565 1287.49 333.631 1291.43 333.653 1291.94H328.549C328.593 1290.97 328.615 1285.82 328.615 1285.25V1282.87C328.615 1282.5 328.549 1276.84 328.549 1276.32H333.653C333.631 1276.71 333.565 1280.28 333.565 1282.92ZM337.798 1276.32H342.946C342.924 1276.82 342.836 1281.35 342.836 1284.13V1288.15C343.364 1288.15 345.96 1288.15 347.72 1288.06L347.742 1292.16C347.214 1292.16 339.58 1291.94 337.82 1291.94C337.886 1290.77 337.886 1286.06 337.886 1285.53V1282.61C337.886 1282.26 337.842 1276.73 337.798 1276.32ZM357.37 1291.94H352.2C352.222 1291.43 352.31 1289.1 352.31 1288.81V1287.84C352.31 1285.01 351.078 1282.72 349.45 1281.64C348.57 1281.05 347.668 1280.69 346.964 1280.5L348.658 1275.96C350.132 1276.45 351.672 1277.15 352.794 1278.27C353.608 1279.09 354.4 1280.23 354.928 1281.95H355.104C355.588 1280.47 356.468 1279.31 357.524 1278.3C358.58 1277.28 359.966 1276.45 361.66 1275.96L363.046 1280.5C362.078 1280.69 360.736 1281.29 359.724 1282.15C358.404 1283.22 357.26 1285.29 357.26 1287.8V1289.23C357.26 1289.54 357.326 1291.5 357.37 1291.94ZM381.31 1288.09L381.53 1292.11C380.76 1292.2 379.968 1292.29 378.934 1292.29C371.718 1292.29 369.056 1288.61 369.056 1285.67C369.056 1282.01 372.378 1277.59 379.968 1275.96L380.936 1280.19C376.294 1281.02 374.424 1283.05 374.424 1285.12C374.424 1286.81 376.272 1288.2 379.198 1288.2C380.078 1288.2 380.782 1288.13 381.31 1288.09ZM391.182 1292.29C385.308 1292.27 382.69 1288.28 382.69 1284.76C382.69 1280.52 385.77 1275.96 392.26 1275.96C397.496 1275.96 400.774 1278.87 400.774 1283.71C400.774 1287.03 398.552 1292.29 391.182 1292.29ZM391.424 1288.88C393.8 1288.88 395.362 1287.14 395.384 1283.86C395.406 1281.02 394.086 1279.37 391.974 1279.37C389.466 1279.37 388.058 1281.75 388.058 1284.43C388.058 1287.38 389.62 1288.88 391.424 1288.88ZM405.776 1292.62L401.442 1291.01C401.816 1290.13 406.26 1278.63 407.536 1275.83H407.756C409.098 1278.01 412.354 1283.4 413.036 1284.52C413.894 1283.22 416.996 1278.08 418.162 1276.18H418.382C419.9 1279.44 424.322 1289.43 424.916 1290.64L420.472 1292.62C419.768 1290.86 417.678 1285.27 417.436 1284.68C417.172 1285.07 414.356 1289.41 412.706 1291.72H412.486C410.792 1289.16 408.482 1285.42 408.13 1284.76C407.756 1285.91 406.172 1291.58 405.776 1292.62ZM436.816 1288.37L436.904 1292.16C436.112 1292.16 428.17 1291.94 427.026 1291.94C427.092 1290.77 427.092 1286.06 427.092 1285.56V1282.61C427.092 1282.26 427.048 1276.95 427.026 1276.32C428.258 1276.32 435.65 1275.99 436.464 1275.92L436.552 1279.55C435.738 1279.55 432.284 1279.66 431.888 1279.66V1282.56C432.328 1282.56 434.858 1282.45 435.826 1282.37L435.892 1285.89C435.298 1285.89 432.372 1285.8 431.888 1285.8V1288.42C432.46 1288.42 435.782 1288.46 436.816 1288.37ZM440.337 1284.98V1282.26C440.337 1281.79 440.315 1276.93 440.227 1276.32C444.275 1276.32 446.629 1276.43 448.675 1276.71C454.439 1277.5 455.539 1280.5 455.539 1282.28C455.539 1289.21 447.311 1292.05 440.205 1292.05C440.293 1291.03 440.337 1285.58 440.337 1284.98ZM445.177 1279.84V1288.04C447.333 1287.69 450.303 1286.13 450.303 1283.05C450.303 1280.45 447.663 1279.84 445.177 1279.84ZM466.976 1291.94H461.806C461.828 1291.43 461.916 1289.1 461.916 1288.81V1287.84C461.916 1285.01 460.684 1282.72 459.056 1281.64C458.176 1281.05 457.274 1280.69 456.57 1280.5L458.264 1275.96C459.738 1276.45 461.278 1277.15 462.4 1278.27C463.214 1279.09 464.006 1280.23 464.534 1281.95H464.71C465.194 1280.47 466.074 1279.31 467.13 1278.3C468.186 1277.28 469.572 1276.45 471.266 1275.96L472.652 1280.5C471.684 1280.69 470.342 1281.29 469.33 1282.15C468.01 1283.22 466.866 1285.29 466.866 1287.8V1289.23C466.866 1289.54 466.932 1291.5 466.976 1291.94ZM497.185 1276.32L501.673 1278.08C501.277 1278.85 495.667 1290.97 494.831 1292.51H494.611C493.401 1290.95 490.563 1286.9 489.727 1285.73C488.341 1287.69 485.657 1291.63 484.645 1293.04H484.425C483.567 1291.39 479.123 1280.32 478.067 1277.81L482.731 1276.1C483.479 1278.63 485.151 1283.97 485.503 1284.94C485.855 1284.3 487.725 1281.38 489.727 1278.03H489.947C491.883 1281.02 493.555 1283.29 494.347 1284.54H494.413C494.875 1283.36 496.723 1277.57 497.185 1276.32ZM508.217 1282.92V1285.29C508.217 1287.49 508.283 1291.43 508.305 1291.94H503.201C503.245 1290.97 503.267 1285.82 503.267 1285.25V1282.87C503.267 1282.5 503.201 1276.84 503.201 1276.32H508.305C508.283 1276.71 508.217 1280.28 508.217 1282.92ZM519.974 1291.94H514.892C514.936 1291.36 514.958 1288.24 514.958 1285.84V1280.08C513.902 1280.08 510.778 1280.19 510.096 1280.21V1276.36C511.086 1276.45 516.3 1276.54 516.542 1276.54H518.456C518.874 1276.54 523.67 1276.45 524.748 1276.36V1280.21C524.33 1280.19 520.26 1280.08 519.908 1280.08V1286.19C519.908 1288.46 519.93 1291.5 519.974 1291.94ZM531.659 1291.94H526.555C526.599 1290.97 526.621 1285.82 526.621 1285.25V1282.87C526.621 1282.5 526.555 1276.84 526.511 1276.32H531.681C531.637 1276.71 531.571 1280.96 531.571 1281.35V1282.23L537.291 1281.82V1280.89C537.291 1280.52 537.247 1276.8 537.203 1276.32H542.329C542.307 1276.84 542.241 1283 542.241 1283.53V1285.73C542.241 1286.02 542.285 1291.52 542.329 1291.94H537.203C537.225 1291.19 537.291 1287.62 537.291 1287.21V1285.53L531.571 1285.95V1286.74C531.571 1287.73 531.637 1291.43 531.659 1291.94ZM553.437 1292.29C547.563 1292.27 544.945 1288.28 544.945 1284.76C544.945 1280.52 548.025 1275.96 554.515 1275.96C559.751 1275.96 563.029 1278.87 563.029 1283.71C563.029 1287.03 560.807 1292.29 553.437 1292.29ZM553.679 1288.88C556.055 1288.88 557.617 1287.14 557.639 1283.86C557.661 1281.02 556.341 1279.37 554.229 1279.37C551.721 1279.37 550.313 1281.75 550.313 1284.43C550.313 1287.38 551.875 1288.88 553.679 1288.88ZM570.098 1280.25V1281.75C570.098 1285.27 570.274 1286.85 571.11 1287.84C571.616 1288.44 572.298 1288.64 572.98 1288.64C573.75 1288.64 574.454 1288.33 574.938 1287.6C575.532 1286.7 575.576 1285.78 575.576 1280.78V1279.95C575.576 1278.43 575.488 1276.91 575.466 1276.1H580.504C580.504 1276.58 580.526 1278.25 580.526 1279.99V1281C580.526 1285.23 580.284 1287.82 578.612 1289.82C577.27 1291.45 575.136 1292.29 572.694 1292.29C570.89 1292.29 568.206 1291.98 566.534 1289.54C565.456 1287.93 565.082 1286.3 565.082 1280.96V1279.77C565.082 1278.76 565.104 1276.93 565.104 1276.43H570.23C570.142 1277 570.098 1278.25 570.098 1280.25ZM591.497 1291.94H586.415C586.459 1291.36 586.481 1288.24 586.481 1285.84V1280.08C585.425 1280.08 582.301 1280.19 581.619 1280.21V1276.36C582.609 1276.45 587.823 1276.54 588.065 1276.54H589.979C590.397 1276.54 595.193 1276.45 596.271 1276.36V1280.21C595.853 1280.19 591.783 1280.08 591.431 1280.08V1286.19C591.431 1288.46 591.453 1291.5 591.497 1291.94ZM610.64 1291.94H605.558C605.602 1291.36 605.624 1288.24 605.624 1285.84V1280.08C604.568 1280.08 601.444 1280.19 600.762 1280.21V1276.36C601.752 1276.45 606.966 1276.54 607.208 1276.54H609.122C609.54 1276.54 614.336 1276.45 615.414 1276.36V1280.21C614.996 1280.19 610.926 1280.08 610.574 1280.08V1286.19C610.574 1288.46 610.596 1291.5 610.64 1291.94ZM622.326 1291.94H617.222C617.266 1290.97 617.288 1285.82 617.288 1285.25V1282.87C617.288 1282.5 617.222 1276.84 617.178 1276.32H622.348C622.304 1276.71 622.238 1280.96 622.238 1281.35V1282.23L627.958 1281.82V1280.89C627.958 1280.52 627.914 1276.8 627.87 1276.32H632.996C632.974 1276.84 632.908 1283 632.908 1283.53V1285.73C632.908 1286.02 632.952 1291.52 632.996 1291.94H627.87C627.892 1291.19 627.958 1287.62 627.958 1287.21V1285.53L622.238 1285.95V1286.74C622.238 1287.73 622.304 1291.43 622.326 1291.94ZM646.939 1288.37L647.027 1292.16C646.235 1292.16 638.293 1291.94 637.149 1291.94C637.215 1290.77 637.215 1286.06 637.215 1285.56V1282.61C637.215 1282.26 637.171 1276.95 637.149 1276.32C638.381 1276.32 645.773 1275.99 646.587 1275.92L646.675 1279.55C645.861 1279.55 642.407 1279.66 642.011 1279.66V1282.56C642.451 1282.56 644.981 1282.45 645.949 1282.37L646.015 1285.89C645.421 1285.89 642.495 1285.8 642.011 1285.8V1288.42C642.583 1288.42 645.905 1288.46 646.939 1288.37ZM660.338 1291.94H655.432C655.52 1290.77 655.52 1286.06 655.52 1285.53V1282.61C655.52 1282.26 655.476 1276.95 655.432 1276.32C657.236 1276.32 662.758 1276.07 665.068 1275.99L665.156 1279.62L660.316 1279.73V1283.11C660.8 1283.11 662.274 1282.98 664.738 1282.92L664.804 1286.39L660.316 1286.35V1288.22C660.316 1288.57 660.338 1291.63 660.338 1291.94ZM669.517 1292.64L665.337 1290.31C665.997 1289.19 672.091 1278.87 674.225 1275.5H674.445C677.085 1279.48 683.003 1288.79 683.927 1290.04L679.571 1292.62C678.933 1291.54 677.811 1289.58 677.591 1289.21L670.969 1289.58C670.793 1289.89 670.001 1291.61 669.517 1292.64ZM672.377 1286.33L676.095 1286.13C675.479 1284.87 674.643 1283.31 674.247 1282.41C673.719 1283.47 672.949 1285.09 672.377 1286.33ZM688.035 1292.62L683.701 1291.01C684.075 1290.13 688.519 1278.63 689.795 1275.83H690.015C691.357 1278.01 694.613 1283.4 695.295 1284.52C696.153 1283.22 699.255 1278.08 700.421 1276.18H700.641C702.159 1279.44 706.581 1289.43 707.175 1290.64L702.731 1292.62C702.027 1290.86 699.937 1285.27 699.695 1284.68C699.431 1285.07 696.615 1289.41 694.965 1291.72H694.745C693.051 1289.16 690.741 1285.42 690.389 1284.76C690.015 1285.91 688.431 1291.58 688.035 1292.62ZM714.301 1282.92V1285.29C714.301 1287.49 714.367 1291.43 714.389 1291.94H709.285C709.329 1290.97 709.351 1285.82 709.351 1285.25V1282.87C709.351 1282.5 709.285 1276.84 709.285 1276.32H714.389C714.367 1276.71 714.301 1280.28 714.301 1282.92ZM718.534 1276.32H723.682C723.66 1276.82 723.572 1281.35 723.572 1284.13V1288.15C724.1 1288.15 726.696 1288.15 728.456 1288.06L728.478 1292.16C727.95 1292.16 720.316 1291.94 718.556 1291.94C718.622 1290.77 718.622 1286.06 718.622 1285.53V1282.61C718.622 1282.26 718.578 1276.73 718.534 1276.32ZM738.106 1291.94H732.936C732.958 1291.43 733.046 1289.1 733.046 1288.81V1287.84C733.046 1285.01 731.814 1282.72 730.186 1281.64C729.306 1281.05 728.404 1280.69 727.7 1280.5L729.394 1275.96C730.868 1276.45 732.408 1277.15 733.53 1278.27C734.344 1279.09 735.136 1280.23 735.664 1281.95H735.84C736.324 1280.47 737.204 1279.31 738.26 1278.3C739.316 1277.28 740.702 1276.45 742.396 1275.96L743.782 1280.5C742.814 1280.69 741.472 1281.29 740.46 1282.15C739.14 1283.22 737.996 1285.29 737.996 1287.8V1289.23C737.996 1289.54 738.062 1291.5 738.106 1291.94ZM743.569 1291.94V1288.53H747.221V1291.94H743.569Z" fill="white"/>
<path d="M259.436 1165.93H254.53C254.618 1164.77 254.618 1160.06 254.618 1159.53V1156.6C254.618 1156.25 254.574 1150.95 254.53 1150.31C256.334 1150.31 261.856 1150.07 264.166 1149.98L264.254 1153.61L259.414 1153.72V1157.11C259.898 1157.11 261.372 1156.98 263.836 1156.91L263.902 1160.39L259.414 1160.34V1162.21C259.414 1162.57 259.436 1165.62 259.436 1165.93ZM289.766 1153.35V1159.2C289.766 1160.04 289.832 1165.6 289.876 1165.93H284.97C285.058 1165.4 285.014 1158.43 285.014 1157.97V1156.16C285.014 1155.5 284.97 1150.73 284.904 1150.31C287.918 1150.31 290.976 1150.36 292.956 1150.62C296.212 1151.04 297.972 1152.31 297.972 1154.34C297.972 1156.14 296.85 1157.53 295.134 1158.74C295.794 1159.49 299.16 1162.9 299.732 1163.6L295.706 1166.64C295.2 1165.8 290.932 1159.62 290.338 1158.65C291.306 1158.08 292.868 1156.87 292.868 1155.39C292.868 1154.36 292.142 1153.37 289.766 1153.35ZM326.184 1166.28C320.31 1166.26 317.692 1162.28 317.692 1158.76C317.692 1154.51 320.772 1149.96 327.262 1149.96C332.498 1149.96 335.776 1152.86 335.776 1157.7C335.776 1161.03 333.554 1166.28 326.184 1166.28ZM326.426 1162.87C328.802 1162.87 330.364 1161.14 330.386 1157.86C330.408 1155.02 329.088 1153.37 326.976 1153.37C324.468 1153.37 323.06 1155.75 323.06 1158.43C323.06 1161.38 324.622 1162.87 326.426 1162.87ZM358.378 1166.61L354.044 1165.01C354.418 1164.13 358.862 1152.62 360.138 1149.83H360.358C361.7 1152.01 364.956 1157.4 365.638 1158.52C366.496 1157.22 369.598 1152.07 370.764 1150.18H370.984C372.502 1153.44 376.924 1163.42 377.518 1164.63L373.074 1166.61C372.37 1164.85 370.28 1159.27 370.038 1158.67C369.774 1159.07 366.958 1163.4 365.308 1165.71H365.088C363.394 1163.16 361.084 1159.42 360.732 1158.76C360.358 1159.9 358.774 1165.58 358.378 1166.61ZM424.904 1156.91V1159.29C424.904 1161.49 424.97 1165.43 424.992 1165.93H419.888C419.932 1164.96 419.954 1159.82 419.954 1159.24V1156.87C419.954 1156.49 419.888 1150.84 419.888 1150.31H424.992C424.97 1150.71 424.904 1154.27 424.904 1156.91ZM448.628 1166.64L444.448 1164.3C445.108 1163.18 451.202 1152.86 453.336 1149.5H453.556C456.196 1153.48 462.114 1162.79 463.038 1164.04L458.682 1166.61C458.044 1165.54 456.922 1163.58 456.702 1163.2L450.08 1163.58C449.904 1163.89 449.112 1165.6 448.628 1166.64ZM451.488 1160.32L455.206 1160.12C454.59 1158.87 453.754 1157.31 453.358 1156.41C452.83 1157.46 452.06 1159.09 451.488 1160.32ZM486.308 1166.09L481.82 1165.93C481.952 1164.37 482.48 1153.11 482.7 1150.18L482.92 1150.05C486.044 1152.34 493.106 1157.68 493.876 1158.25C493.876 1157.04 493.81 1151.15 493.832 1150.2L498.32 1150.31C498.188 1152.03 497.99 1155.31 497.792 1158.52C497.616 1161.71 497.462 1164.83 497.396 1166.26L497.176 1166.37C494.536 1164.66 486.594 1158.36 486.264 1158.1C486.264 1159 486.286 1165.36 486.308 1166.09ZM546.248 1163.14C547.018 1163.14 547.788 1162.85 548.426 1162.32C547.15 1161.49 546.204 1160.61 545.214 1159.73C544.796 1160.26 544.466 1160.87 544.488 1161.77C544.488 1162.43 545.236 1163.14 546.248 1163.14ZM556.324 1163.05L553.728 1166.46C553.134 1166.06 552.166 1165.4 550.868 1164.39C549.68 1165.36 547.854 1166.28 545.214 1166.28C541.914 1166.28 540.088 1164.88 540.088 1162.57C540.088 1160.56 541.826 1158.76 543.124 1157.73C542.442 1157.04 541.936 1156.23 541.936 1155.2C541.936 1153.04 544.686 1150.66 550.78 1150.05L551.176 1153.72C547.634 1153.77 546.534 1154.38 546.534 1155.2C546.534 1155.88 547.216 1156.43 548.778 1157.66C549.57 1158.3 550.384 1158.89 551.198 1159.49C551.594 1158.87 552.122 1157.92 552.782 1156.65L556.038 1158.67C555.202 1159.84 554.454 1160.7 553.86 1161.36C554.586 1161.86 555.62 1162.57 556.324 1163.05ZM608.821 1162.08L609.041 1166.11C608.271 1166.2 607.479 1166.28 606.445 1166.28C599.229 1166.28 596.567 1162.61 596.567 1159.66C596.567 1156.01 599.889 1151.59 607.479 1149.96L608.447 1154.18C603.805 1155.02 601.935 1157.04 601.935 1159.11C601.935 1160.81 603.783 1162.19 606.709 1162.19C607.589 1162.19 608.293 1162.13 608.821 1162.08ZM634.463 1156.91V1159.29C634.463 1161.49 634.529 1165.43 634.551 1165.93H629.447C629.491 1164.96 629.513 1159.82 629.513 1159.24V1156.87C629.513 1156.49 629.447 1150.84 629.447 1150.31H634.551C634.529 1150.71 634.463 1154.27 634.463 1156.91ZM660.124 1166.09L655.636 1165.93C655.768 1164.37 656.296 1153.11 656.516 1150.18L656.736 1150.05C659.86 1152.34 666.922 1157.68 667.692 1158.25C667.692 1157.04 667.626 1151.15 667.648 1150.2L672.136 1150.31C672.004 1152.03 671.806 1155.31 671.608 1158.52C671.432 1161.71 671.278 1164.83 671.212 1166.26L670.992 1166.37C668.352 1164.66 660.41 1158.36 660.08 1158.1C660.08 1159 660.102 1165.36 660.124 1166.09ZM693.224 1158.98V1156.25C693.224 1155.79 693.202 1150.93 693.114 1150.31C697.162 1150.31 699.516 1150.42 701.562 1150.71C707.326 1151.5 708.426 1154.49 708.426 1156.27C708.426 1163.2 700.198 1166.04 693.092 1166.04C693.18 1165.03 693.224 1159.57 693.224 1158.98ZM698.064 1153.83V1162.04C700.22 1161.69 703.19 1160.12 703.19 1157.04C703.19 1154.45 700.55 1153.83 698.064 1153.83ZM737.462 1165.93H732.292C732.314 1165.43 732.402 1163.09 732.402 1162.81V1161.84C732.402 1159 731.17 1156.71 729.542 1155.64C728.662 1155.04 727.76 1154.69 727.056 1154.49L728.75 1149.96C730.224 1150.44 731.764 1151.15 732.886 1152.27C733.7 1153.08 734.492 1154.23 735.02 1155.94H735.196C735.68 1154.47 736.56 1153.3 737.616 1152.29C738.672 1151.28 740.058 1150.44 741.752 1149.96L743.138 1154.49C742.17 1154.69 740.828 1155.28 739.816 1156.14C738.496 1157.22 737.352 1159.29 737.352 1161.8V1163.23C737.352 1163.53 737.418 1165.49 737.462 1165.93Z" fill="white"/>
</g>
<defs>
<pattern id="pattern0_2376_800" patternContentUnits="objectBoundingBox" width="1" height="1">
<use xlink:href="#image0_2376_800" transform="matrix(0.000845157 0 0 0.00115741 -0.000333067 0)"/>
</pattern>
<pattern id="pattern1_2376_800" patternContentUnits="objectBoundingBox" width="1" height="1">
<use xlink:href="#image0_2376_800" transform="matrix(0.000845157 0 0 0.00115741 -0.000333067 0)"/>
</pattern>
<pattern id="pattern2_2376_800" patternContentUnits="objectBoundingBox" width="1" height="1">
<use xlink:href="#image1_2376_800" transform="scale(0.00296736 0.00390625)"/>
</pattern>
<pattern id="pattern3_2376_800" patternContentUnits="objectBoundingBox" width="1" height="1">
<use xlink:href="#image1_2376_800" transform="matrix(0.00296736 0 0 0.00529101 0 -0.243386)"/>
</pattern>
<pattern id="pattern4_2376_800" patternContentUnits="objectBoundingBox" width="1" height="1">
<use xlink:href="#image1_2376_800" transform="matrix(0.00290698 0 0 0.00390625 -1.32849 0)"/>
</pattern>
<pattern id="pattern5_2376_800" patternContentUnits="objectBoundingBox" width="1" height="1">
<use xlink:href="#image1_2376_800" transform="matrix(0.00290698 0 0 0.00507614 -1.32849 -0.233503)"/>
</pattern>
<pattern id="pattern6_2376_800" patternContentUnits="objectBoundingBox" width="1" height="1">
<use xlink:href="#image2_2376_800" transform="scale(0.000370645 0.000244141)"/>
</pattern>
<pattern id="pattern7_2376_800" patternContentUnits="objectBoundingBox" width="1" height="1">
<use xlink:href="#image3_2376_800" transform="scale(0.00056243 0.000387147)"/>
</pattern>
<pattern id="pattern8_2376_800" patternContentUnits="objectBoundingBox" width="1" height="1">
<use xlink:href="#image4_2376_800" transform="scale(0.000333333)"/>
</pattern>
<pattern id="pattern9_2376_800" patternContentUnits="objectBoundingBox" width="1" height="1">
<use xlink:href="#image5_2376_800" transform="matrix(0.00115793 0 0 0.000752778 -0.000224477 0.323254)"/>
</pattern>
<pattern id="pattern10_2376_800" patternContentUnits="objectBoundingBox" width="1" height="1">
<use xlink:href="#image6_2376_800" transform="matrix(0.00125 0 0 0.00323232 0 -0.0010101)"/>
</pattern>
<filter id="filter0_d_2376_800" x="281.543" y="43.3787" width="440.048" height="36.834" filterUnits="userSpaceOnUse" color-interpolation-filters="sRGB">
<feFlood flood-opacity="0" result="BackgroundImageFix"/>
<feColorMatrix in="SourceAlpha" type="matrix" values="0 0 0 0 0 0 0 0 0 0 0 0 0 0 0 0 0 0 127 0" result="hardAlpha"/>
<feOffset dx="-1" dy="1"/>
<feComposite in2="hardAlpha" operator="out"/>
<feColorMatrix type="matrix" values="0 0 0 0 1 0 0 0 0 1 0 0 0 0 1 0 0 0 1 0"/>
<feBlend mode="normal" in2="BackgroundImageFix" result="effect1_dropShadow_2376_800"/>
<feBlend mode="normal" in="SourceGraphic" in2="effect1_dropShadow_2376_800" result="shape"/>
</filter>
<linearGradient id="paint0_linear_2376_800" x1="499.5" y1="501" x2="499.5" y2="1358" gradientUnits="userSpaceOnUse">
<stop stop-color="#09070B" stop-opacity="0"/>
<stop offset="1" stop-color="#09070B"/>
</linearGradient>
<clipPath id="clip0_2376_800">
<rect width="1000" height="1389" fill="white"/>
</clipPath>
<image id="image0_2376_800" width="1184" height="864" preserveAspectRatio="none" xlink:href="/images/optimized/card-template-image-1.webp"/>
<image id="image1_2376_800" width="1024" height="256" preserveAspectRatio="none" xlink:href="/images/optimized/card-template-image-2.webp"/>
<image id="image2_2376_800" width="2698" height="4096" preserveAspectRatio="none" xlink:href="/images/optimized/card-template-image-3.webp"/>
<image id="image3_2376_800" width="1778" height="2583" preserveAspectRatio="none" xlink:href="/images/optimized/card-template-image-4.webp"/>
<image id="image4_2376_800" width="3000" height="3000" preserveAspectRatio="none" xlink:href="/images/optimized/card-template-image-5-optimized.png"/>
<image id="image5_2376_800" width="864" height="1184" preserveAspectRatio="none" xlink:href="/images/optimized/card-template-image-6.webp"/>
<image id="image6_2376_800" width="800" height="310" preserveAspectRatio="none" xlink:href="/images/optimized/card-template-image-7-optimized.png"/>
</defs>
</svg>
